<mxfile host="Electron" modified="2024-04-24T02:03:24.335Z" agent="Mozilla/5.0 (X11; Linux x86_64) AppleWebKit/537.36 (KHTML, like Gecko) draw.io/24.0.4 Chrome/120.0.6099.109 Electron/28.1.0 Safari/537.36" etag="77VNrCneldF-HOWJ2z-V" version="24.0.4" type="device">
  <diagram id="C5RBs43oDa-KdzZeNtuy" name="Page-1">
    <mxGraphModel dx="3447" dy="1041" grid="0" gridSize="10" guides="1" tooltips="1" connect="1" arrows="1" fold="1" page="1" pageScale="1" pageWidth="827" pageHeight="1169" math="0" shadow="0">
      <root>
        <mxCell id="WIyWlLk6GJQsqaUBKTNV-0" />
        <mxCell id="WIyWlLk6GJQsqaUBKTNV-1" parent="WIyWlLk6GJQsqaUBKTNV-0" />
        <mxCell id="zkfFHV4jXpPFQw0GAbJ--0" value="Fighter (STR)" style="swimlane;fontStyle=1;align=center;verticalAlign=top;childLayout=stackLayout;horizontal=1;startSize=26;horizontalStack=0;resizeParent=1;resizeLast=0;collapsible=1;marginBottom=0;rounded=0;shadow=0;strokeWidth=1;fontSize=14;fillColor=#008a00;fontColor=#ffffff;strokeColor=#005700;" parent="WIyWlLk6GJQsqaUBKTNV-1" vertex="1">
          <mxGeometry x="-99" y="49" width="209" height="417" as="geometry">
            <mxRectangle x="230" y="140" width="160" height="26" as="alternateBounds" />
          </mxGeometry>
        </mxCell>
        <mxCell id="u42fgVE65Rf_uUiQ0a6k-40" value="Fighters are durable melee combatants. " style="text;align=center;verticalAlign=top;spacingLeft=4;spacingRight=4;overflow=hidden;rotatable=0;points=[[0,0.5],[1,0.5]];portConstraint=eastwest;rounded=0;fillColor=none;fontStyle=0;whiteSpace=wrap;" parent="zkfFHV4jXpPFQw0GAbJ--0" vertex="1">
          <mxGeometry y="26" width="209" height="44" as="geometry" />
        </mxCell>
        <mxCell id="u42fgVE65Rf_uUiQ0a6k-41" value="" style="line;html=1;strokeWidth=1;align=left;verticalAlign=middle;spacingTop=-1;spacingLeft=3;spacingRight=3;rotatable=0;labelPosition=right;points=[];portConstraint=eastwest;" parent="zkfFHV4jXpPFQw0GAbJ--0" vertex="1">
          <mxGeometry y="70" width="209" height="8" as="geometry" />
        </mxCell>
        <mxCell id="zkfFHV4jXpPFQw0GAbJ--1" value="Stats (STR/DEX/INT):&#xa;" style="text;align=center;verticalAlign=top;spacingLeft=4;spacingRight=4;overflow=hidden;rotatable=0;points=[[0,0.5],[1,0.5]];portConstraint=eastwest;rounded=0;fillColor=none;fontStyle=4" parent="zkfFHV4jXpPFQw0GAbJ--0" vertex="1">
          <mxGeometry y="78" width="209" height="26" as="geometry" />
        </mxCell>
        <mxCell id="u42fgVE65Rf_uUiQ0a6k-28" value="&lt;ul&gt;&lt;li&gt;Level 1: 10 - 10 - 10&lt;/li&gt;&lt;li&gt;Level 2:&amp;nbsp;10 - 10 - 10&lt;/li&gt;&lt;li&gt;Level 3:&amp;nbsp;10 - 10 - 10&lt;/li&gt;&lt;li&gt;Level 4:&amp;nbsp;10 - 10 - 10&lt;/li&gt;&lt;/ul&gt;" style="text;strokeColor=none;fillColor=none;html=1;whiteSpace=wrap;verticalAlign=middle;overflow=hidden;spacingTop=-13;spacingLeft=-22;" parent="zkfFHV4jXpPFQw0GAbJ--0" vertex="1">
          <mxGeometry y="104" width="209" height="60" as="geometry" />
        </mxCell>
        <mxCell id="zkfFHV4jXpPFQw0GAbJ--4" value="" style="line;html=1;strokeWidth=1;align=left;verticalAlign=middle;spacingTop=-1;spacingLeft=3;spacingRight=3;rotatable=0;labelPosition=right;points=[];portConstraint=eastwest;" parent="zkfFHV4jXpPFQw0GAbJ--0" vertex="1">
          <mxGeometry y="164" width="209" height="8" as="geometry" />
        </mxCell>
        <mxCell id="u42fgVE65Rf_uUiQ0a6k-29" value="Skills:" style="text;align=center;verticalAlign=top;spacingLeft=4;spacingRight=4;overflow=hidden;rotatable=0;points=[[0,0.5],[1,0.5]];portConstraint=eastwest;rounded=0;fillColor=none;fontStyle=4" parent="zkfFHV4jXpPFQw0GAbJ--0" vertex="1">
          <mxGeometry y="172" width="209" height="26" as="geometry" />
        </mxCell>
        <mxCell id="u42fgVE65Rf_uUiQ0a6k-30" value="&lt;ul&gt;&lt;li&gt;Brace: Gain defense until the start of your next turn. Ends your turn. (N; DEF)&lt;/li&gt;&lt;/ul&gt;&lt;ul&gt;&lt;li&gt;&lt;span style=&quot;background-color: initial;&quot;&gt;Slash: Attack an enemy with a high base damage. (ST; ATK)&lt;/span&gt;&lt;/li&gt;&lt;/ul&gt;&lt;ul&gt;&lt;li&gt;&lt;span style=&quot;background-color: initial;&quot;&gt;Mighty Roar: Shout, debuffing enemies around you and increasing your chance of being targeted. (N; WEA)&lt;/span&gt;&lt;/li&gt;&lt;/ul&gt;&lt;ul&gt;&lt;li&gt;&lt;span style=&quot;background-color: initial;&quot;&gt;War Step: Attack a character, then move to an adjacent tile. (ST; ATK, POS)&lt;/span&gt;&lt;br&gt;&lt;/li&gt;&lt;/ul&gt;" style="text;strokeColor=none;fillColor=none;html=1;whiteSpace=wrap;verticalAlign=middle;overflow=hidden;spacingTop=-13;spacingLeft=-22;spacing=0;" parent="zkfFHV4jXpPFQw0GAbJ--0" vertex="1">
          <mxGeometry y="198" width="209" height="219" as="geometry" />
        </mxCell>
        <mxCell id="u42fgVE65Rf_uUiQ0a6k-38" value="" style="endArrow=classic;html=1;rounded=0;" parent="WIyWlLk6GJQsqaUBKTNV-1" source="zkfFHV4jXpPFQw0GAbJ--0" target="u42fgVE65Rf_uUiQ0a6k-42" edge="1">
          <mxGeometry width="50" height="50" relative="1" as="geometry">
            <mxPoint x="190" y="460" as="sourcePoint" />
            <mxPoint x="202.64705882352928" y="460" as="targetPoint" />
          </mxGeometry>
        </mxCell>
        <mxCell id="u42fgVE65Rf_uUiQ0a6k-42" value="Warrior (STR)" style="swimlane;fontStyle=1;align=center;verticalAlign=top;childLayout=stackLayout;horizontal=1;startSize=26;horizontalStack=0;resizeParent=1;resizeLast=0;collapsible=1;marginBottom=0;rounded=0;shadow=0;strokeWidth=1;fontSize=14;" parent="WIyWlLk6GJQsqaUBKTNV-1" vertex="1">
          <mxGeometry x="-930" y="350" width="217" height="358" as="geometry">
            <mxRectangle x="230" y="140" width="160" height="26" as="alternateBounds" />
          </mxGeometry>
        </mxCell>
        <mxCell id="u42fgVE65Rf_uUiQ0a6k-44" value="" style="line;html=1;strokeWidth=1;align=left;verticalAlign=middle;spacingTop=-1;spacingLeft=3;spacingRight=3;rotatable=0;labelPosition=right;points=[];portConstraint=eastwest;" parent="u42fgVE65Rf_uUiQ0a6k-42" vertex="1">
          <mxGeometry y="26" width="217" height="8" as="geometry" />
        </mxCell>
        <mxCell id="u42fgVE65Rf_uUiQ0a6k-43" value="Warriors are fighters with experience and refined techniques. " style="text;align=center;verticalAlign=top;spacingLeft=4;spacingRight=4;overflow=hidden;rotatable=0;points=[[0,0.5],[1,0.5]];portConstraint=eastwest;rounded=0;fillColor=none;fontStyle=0;whiteSpace=wrap;" parent="u42fgVE65Rf_uUiQ0a6k-42" vertex="1">
          <mxGeometry y="34" width="217" height="44" as="geometry" />
        </mxCell>
        <mxCell id="u42fgVE65Rf_uUiQ0a6k-248" value="" style="line;html=1;strokeWidth=1;align=left;verticalAlign=middle;spacingTop=-1;spacingLeft=3;spacingRight=3;rotatable=0;labelPosition=right;points=[];portConstraint=eastwest;" parent="u42fgVE65Rf_uUiQ0a6k-42" vertex="1">
          <mxGeometry y="78" width="217" height="8" as="geometry" />
        </mxCell>
        <mxCell id="u42fgVE65Rf_uUiQ0a6k-45" value="Stats (STR/DEX/INT):&#xa;" style="text;align=center;verticalAlign=top;spacingLeft=4;spacingRight=4;overflow=hidden;rotatable=0;points=[[0,0.5],[1,0.5]];portConstraint=eastwest;rounded=0;fillColor=none;fontStyle=4" parent="u42fgVE65Rf_uUiQ0a6k-42" vertex="1">
          <mxGeometry y="86" width="217" height="26" as="geometry" />
        </mxCell>
        <mxCell id="u42fgVE65Rf_uUiQ0a6k-46" value="&lt;ul&gt;&lt;li&gt;Level 5: 10 - 10 - 10&lt;/li&gt;&lt;li&gt;Level 6:&amp;nbsp;10 - 10 - 10&lt;/li&gt;&lt;li&gt;Level 7:&amp;nbsp;10 - 10 - 10&lt;/li&gt;&lt;li&gt;Level 8:&amp;nbsp;10 - 10 - 10&lt;/li&gt;&lt;/ul&gt;" style="text;strokeColor=none;fillColor=none;html=1;whiteSpace=wrap;verticalAlign=middle;overflow=hidden;spacingTop=-13;spacingLeft=-22;" parent="u42fgVE65Rf_uUiQ0a6k-42" vertex="1">
          <mxGeometry y="112" width="217" height="60" as="geometry" />
        </mxCell>
        <mxCell id="u42fgVE65Rf_uUiQ0a6k-47" value="" style="line;html=1;strokeWidth=1;align=left;verticalAlign=middle;spacingTop=-1;spacingLeft=3;spacingRight=3;rotatable=0;labelPosition=right;points=[];portConstraint=eastwest;" parent="u42fgVE65Rf_uUiQ0a6k-42" vertex="1">
          <mxGeometry y="172" width="217" height="8" as="geometry" />
        </mxCell>
        <mxCell id="u42fgVE65Rf_uUiQ0a6k-48" value="Skills:" style="text;align=center;verticalAlign=top;spacingLeft=4;spacingRight=4;overflow=hidden;rotatable=0;points=[[0,0.5],[1,0.5]];portConstraint=eastwest;rounded=0;fillColor=none;fontStyle=4" parent="u42fgVE65Rf_uUiQ0a6k-42" vertex="1">
          <mxGeometry y="180" width="217" height="26" as="geometry" />
        </mxCell>
        <mxCell id="u42fgVE65Rf_uUiQ0a6k-49" value="&lt;ul&gt;&lt;li&gt;Deadly Slash: (Upgrade from Slash) Once per turn, if the target dies, gain one free use of Deadly Slash. (ST; ATK)&lt;/li&gt;&lt;/ul&gt;&lt;ul&gt;&lt;li&gt;Capitalize: Inflict 1x stacks of stun if an enemy attacked an ally other than you on the previous turn. (ST; WEA, ATK)&lt;/li&gt;&lt;/ul&gt;" style="text;strokeColor=none;fillColor=none;html=1;whiteSpace=wrap;verticalAlign=middle;overflow=hidden;spacingTop=-13;spacingLeft=-22;spacing=0;" parent="u42fgVE65Rf_uUiQ0a6k-42" vertex="1">
          <mxGeometry y="206" width="217" height="142" as="geometry" />
        </mxCell>
        <mxCell id="u42fgVE65Rf_uUiQ0a6k-50" value="Barbarian (STR)" style="swimlane;fontStyle=1;align=center;verticalAlign=top;childLayout=stackLayout;horizontal=1;startSize=26;horizontalStack=0;resizeParent=1;resizeLast=0;collapsible=1;marginBottom=0;rounded=0;shadow=0;strokeWidth=1;fontSize=14;" parent="WIyWlLk6GJQsqaUBKTNV-1" vertex="1">
          <mxGeometry x="740" y="310" width="200" height="340" as="geometry">
            <mxRectangle x="230" y="140" width="160" height="26" as="alternateBounds" />
          </mxGeometry>
        </mxCell>
        <mxCell id="u42fgVE65Rf_uUiQ0a6k-51" value="Barbarians are relentless fighters with great might. " style="text;align=center;verticalAlign=top;spacingLeft=4;spacingRight=4;overflow=hidden;rotatable=0;points=[[0,0.5],[1,0.5]];portConstraint=eastwest;rounded=0;fillColor=none;fontStyle=0;whiteSpace=wrap;" parent="u42fgVE65Rf_uUiQ0a6k-50" vertex="1">
          <mxGeometry y="26" width="200" height="43" as="geometry" />
        </mxCell>
        <mxCell id="u42fgVE65Rf_uUiQ0a6k-52" value="" style="line;html=1;strokeWidth=1;align=left;verticalAlign=middle;spacingTop=-1;spacingLeft=3;spacingRight=3;rotatable=0;labelPosition=right;points=[];portConstraint=eastwest;" parent="u42fgVE65Rf_uUiQ0a6k-50" vertex="1">
          <mxGeometry y="69" width="200" height="8" as="geometry" />
        </mxCell>
        <mxCell id="u42fgVE65Rf_uUiQ0a6k-53" value="Stats (STR/DEX/INT):&#xa;" style="text;align=center;verticalAlign=top;spacingLeft=4;spacingRight=4;overflow=hidden;rotatable=0;points=[[0,0.5],[1,0.5]];portConstraint=eastwest;rounded=0;fillColor=none;fontStyle=4" parent="u42fgVE65Rf_uUiQ0a6k-50" vertex="1">
          <mxGeometry y="77" width="200" height="26" as="geometry" />
        </mxCell>
        <mxCell id="u42fgVE65Rf_uUiQ0a6k-54" value="&lt;ul&gt;&lt;li&gt;Level 5: 10 - 10 - 10&lt;/li&gt;&lt;li&gt;Level 6:&amp;nbsp;10 - 10 - 10&lt;/li&gt;&lt;li&gt;Level 7:&amp;nbsp;10 - 10 - 10&lt;/li&gt;&lt;li&gt;Level 8:&amp;nbsp;10 - 10 - 10&lt;/li&gt;&lt;/ul&gt;" style="text;strokeColor=none;fillColor=none;html=1;whiteSpace=wrap;verticalAlign=middle;overflow=hidden;spacingTop=-13;spacingLeft=-22;" parent="u42fgVE65Rf_uUiQ0a6k-50" vertex="1">
          <mxGeometry y="103" width="200" height="60" as="geometry" />
        </mxCell>
        <mxCell id="u42fgVE65Rf_uUiQ0a6k-55" value="" style="line;html=1;strokeWidth=1;align=left;verticalAlign=middle;spacingTop=-1;spacingLeft=3;spacingRight=3;rotatable=0;labelPosition=right;points=[];portConstraint=eastwest;" parent="u42fgVE65Rf_uUiQ0a6k-50" vertex="1">
          <mxGeometry y="163" width="200" height="8" as="geometry" />
        </mxCell>
        <mxCell id="u42fgVE65Rf_uUiQ0a6k-56" value="Skills:" style="text;align=center;verticalAlign=top;spacingLeft=4;spacingRight=4;overflow=hidden;rotatable=0;points=[[0,0.5],[1,0.5]];portConstraint=eastwest;rounded=0;fillColor=none;fontStyle=4" parent="u42fgVE65Rf_uUiQ0a6k-50" vertex="1">
          <mxGeometry y="171" width="200" height="26" as="geometry" />
        </mxCell>
        <mxCell id="u42fgVE65Rf_uUiQ0a6k-57" value="&lt;ul&gt;&lt;li&gt;Collateral Damage: Single Target skills that deal damage may also deal extra damage to characters adjacent to the target. (P; ATK)&lt;/li&gt;&lt;/ul&gt;&lt;ul&gt;&lt;li&gt;Outrage: Deal extra damage on your next attack based on the damage taek nduring your previous round. (P; ATK)&lt;/li&gt;&lt;/ul&gt;" style="text;strokeColor=none;fillColor=none;html=1;whiteSpace=wrap;verticalAlign=middle;overflow=hidden;spacingTop=-13;spacingLeft=-22;spacing=0;" parent="u42fgVE65Rf_uUiQ0a6k-50" vertex="1">
          <mxGeometry y="197" width="200" height="132" as="geometry" />
        </mxCell>
        <mxCell id="u42fgVE65Rf_uUiQ0a6k-58" value="" style="endArrow=classic;html=1;rounded=0;" parent="WIyWlLk6GJQsqaUBKTNV-1" source="zkfFHV4jXpPFQw0GAbJ--0" target="u42fgVE65Rf_uUiQ0a6k-50" edge="1">
          <mxGeometry width="50" height="50" relative="1" as="geometry">
            <mxPoint x="500" y="320" as="sourcePoint" />
            <mxPoint x="550" y="270" as="targetPoint" />
          </mxGeometry>
        </mxCell>
        <mxCell id="u42fgVE65Rf_uUiQ0a6k-59" value="Monk (DEX)" style="swimlane;fontStyle=1;align=center;verticalAlign=top;childLayout=stackLayout;horizontal=1;startSize=26;horizontalStack=0;resizeParent=1;resizeLast=0;collapsible=1;marginBottom=0;rounded=0;shadow=0;strokeWidth=1;fontSize=14;fontColor=#ffffff;" parent="WIyWlLk6GJQsqaUBKTNV-1" vertex="1">
          <mxGeometry x="-1383" y="893" width="244" height="365" as="geometry">
            <mxRectangle x="230" y="140" width="160" height="26" as="alternateBounds" />
          </mxGeometry>
        </mxCell>
        <mxCell id="u42fgVE65Rf_uUiQ0a6k-60" value="Monks abandon traditional weapons and armor in favor of a purer approach&#xa; to combat. They develop intricate combos and can weave between skills. " style="text;align=center;verticalAlign=top;spacingLeft=4;spacingRight=4;overflow=hidden;rotatable=0;points=[[0,0.5],[1,0.5]];portConstraint=eastwest;rounded=0;fillColor=none;fontStyle=0;whiteSpace=wrap;" parent="u42fgVE65Rf_uUiQ0a6k-59" vertex="1">
          <mxGeometry y="26" width="244" height="68" as="geometry" />
        </mxCell>
        <mxCell id="u42fgVE65Rf_uUiQ0a6k-61" value="" style="line;html=1;strokeWidth=1;align=left;verticalAlign=middle;spacingTop=-1;spacingLeft=3;spacingRight=3;rotatable=0;labelPosition=right;points=[];portConstraint=eastwest;" parent="u42fgVE65Rf_uUiQ0a6k-59" vertex="1">
          <mxGeometry y="94" width="244" height="8" as="geometry" />
        </mxCell>
        <mxCell id="u42fgVE65Rf_uUiQ0a6k-62" value="Stats (STR/DEX/INT):&#xa;" style="text;align=center;verticalAlign=top;spacingLeft=4;spacingRight=4;overflow=hidden;rotatable=0;points=[[0,0.5],[1,0.5]];portConstraint=eastwest;rounded=0;fillColor=none;fontStyle=4" parent="u42fgVE65Rf_uUiQ0a6k-59" vertex="1">
          <mxGeometry y="102" width="244" height="26" as="geometry" />
        </mxCell>
        <mxCell id="u42fgVE65Rf_uUiQ0a6k-63" value="&lt;ul&gt;&lt;li&gt;Level 9: 10 - 10 - 10&lt;/li&gt;&lt;li&gt;Level 10:&amp;nbsp;10 - 10 - 10&lt;/li&gt;&lt;li&gt;Level 11: 10 - 10 - 10&lt;/li&gt;&lt;li&gt;Level 12:&amp;nbsp;10 - 10 - 10&lt;/li&gt;&lt;/ul&gt;" style="text;strokeColor=none;fillColor=none;html=1;whiteSpace=wrap;verticalAlign=middle;overflow=hidden;spacingTop=-13;spacingLeft=-22;" parent="u42fgVE65Rf_uUiQ0a6k-59" vertex="1">
          <mxGeometry y="128" width="244" height="60" as="geometry" />
        </mxCell>
        <mxCell id="u42fgVE65Rf_uUiQ0a6k-64" value="" style="line;html=1;strokeWidth=1;align=left;verticalAlign=middle;spacingTop=-1;spacingLeft=3;spacingRight=3;rotatable=0;labelPosition=right;points=[];portConstraint=eastwest;" parent="u42fgVE65Rf_uUiQ0a6k-59" vertex="1">
          <mxGeometry y="188" width="244" height="8" as="geometry" />
        </mxCell>
        <mxCell id="u42fgVE65Rf_uUiQ0a6k-65" value="Skills:" style="text;align=center;verticalAlign=top;spacingLeft=4;spacingRight=4;overflow=hidden;rotatable=0;points=[[0,0.5],[1,0.5]];portConstraint=eastwest;rounded=0;fillColor=none;fontStyle=4" parent="u42fgVE65Rf_uUiQ0a6k-59" vertex="1">
          <mxGeometry y="196" width="244" height="26" as="geometry" />
        </mxCell>
        <mxCell id="u42fgVE65Rf_uUiQ0a6k-66" value="&lt;ul&gt;&lt;li&gt;Stance Breaker: An attack that ignores most of the target&#39;s armor. (ST; ATK)&lt;/li&gt;&lt;/ul&gt;" style="text;strokeColor=none;fillColor=none;html=1;whiteSpace=wrap;verticalAlign=middle;overflow=hidden;spacingTop=-13;spacingLeft=-22;spacing=0;" parent="u42fgVE65Rf_uUiQ0a6k-59" vertex="1">
          <mxGeometry y="222" width="244" height="143" as="geometry" />
        </mxCell>
        <mxCell id="u42fgVE65Rf_uUiQ0a6k-67" value="" style="endArrow=classic;html=1;rounded=0;" parent="WIyWlLk6GJQsqaUBKTNV-1" source="u42fgVE65Rf_uUiQ0a6k-42" target="u42fgVE65Rf_uUiQ0a6k-59" edge="1">
          <mxGeometry width="50" height="50" relative="1" as="geometry">
            <mxPoint x="-400" y="660" as="sourcePoint" />
            <mxPoint x="-341.1214953271028" y="1000" as="targetPoint" />
          </mxGeometry>
        </mxCell>
        <mxCell id="u42fgVE65Rf_uUiQ0a6k-68" value="Knight (STR)" style="swimlane;fontStyle=1;align=center;verticalAlign=top;childLayout=stackLayout;horizontal=1;startSize=26;horizontalStack=0;resizeParent=1;resizeLast=0;collapsible=1;marginBottom=0;rounded=0;shadow=0;strokeWidth=1;fontSize=14;fontColor=#ffffff;" parent="WIyWlLk6GJQsqaUBKTNV-1" vertex="1">
          <mxGeometry x="-538" y="904" width="303" height="366" as="geometry">
            <mxRectangle x="230" y="140" width="160" height="26" as="alternateBounds" />
          </mxGeometry>
        </mxCell>
        <mxCell id="u42fgVE65Rf_uUiQ0a6k-69" value="Knights employ expert use of equipment while in conflict. " style="text;align=center;verticalAlign=top;spacingLeft=4;spacingRight=4;overflow=hidden;rotatable=0;points=[[0,0.5],[1,0.5]];portConstraint=eastwest;rounded=0;fillColor=none;fontStyle=0;whiteSpace=wrap;" parent="u42fgVE65Rf_uUiQ0a6k-68" vertex="1">
          <mxGeometry y="26" width="303" height="34" as="geometry" />
        </mxCell>
        <mxCell id="u42fgVE65Rf_uUiQ0a6k-70" value="" style="line;html=1;strokeWidth=1;align=left;verticalAlign=middle;spacingTop=-1;spacingLeft=3;spacingRight=3;rotatable=0;labelPosition=right;points=[];portConstraint=eastwest;" parent="u42fgVE65Rf_uUiQ0a6k-68" vertex="1">
          <mxGeometry y="60" width="303" height="8" as="geometry" />
        </mxCell>
        <mxCell id="u42fgVE65Rf_uUiQ0a6k-71" value="Stats (STR/DEX/INT):&#xa;" style="text;align=center;verticalAlign=top;spacingLeft=4;spacingRight=4;overflow=hidden;rotatable=0;points=[[0,0.5],[1,0.5]];portConstraint=eastwest;rounded=0;fillColor=none;fontStyle=4" parent="u42fgVE65Rf_uUiQ0a6k-68" vertex="1">
          <mxGeometry y="68" width="303" height="26" as="geometry" />
        </mxCell>
        <mxCell id="u42fgVE65Rf_uUiQ0a6k-72" value="&lt;ul&gt;&lt;li&gt;Level 9: 10 - 10 - 10&lt;/li&gt;&lt;li&gt;Level 10:&amp;nbsp;10 - 10 - 10&lt;/li&gt;&lt;li&gt;Level 11: 10 - 10 - 10&lt;/li&gt;&lt;li&gt;Level 12:&amp;nbsp;10 - 10 - 10&lt;/li&gt;&lt;/ul&gt;" style="text;strokeColor=none;fillColor=none;html=1;whiteSpace=wrap;verticalAlign=middle;overflow=hidden;spacingTop=-13;spacingLeft=-22;" parent="u42fgVE65Rf_uUiQ0a6k-68" vertex="1">
          <mxGeometry y="94" width="303" height="60" as="geometry" />
        </mxCell>
        <mxCell id="u42fgVE65Rf_uUiQ0a6k-73" value="" style="line;html=1;strokeWidth=1;align=left;verticalAlign=middle;spacingTop=-1;spacingLeft=3;spacingRight=3;rotatable=0;labelPosition=right;points=[];portConstraint=eastwest;" parent="u42fgVE65Rf_uUiQ0a6k-68" vertex="1">
          <mxGeometry y="154" width="303" height="8" as="geometry" />
        </mxCell>
        <mxCell id="u42fgVE65Rf_uUiQ0a6k-74" value="Skills:" style="text;align=center;verticalAlign=top;spacingLeft=4;spacingRight=4;overflow=hidden;rotatable=0;points=[[0,0.5],[1,0.5]];portConstraint=eastwest;rounded=0;fillColor=none;fontStyle=4" parent="u42fgVE65Rf_uUiQ0a6k-68" vertex="1">
          <mxGeometry y="162" width="303" height="26" as="geometry" />
        </mxCell>
        <mxCell id="u42fgVE65Rf_uUiQ0a6k-75" value="&lt;ul&gt;&lt;li&gt;Charge!: Choose a target with a clear path in a straight line. Run at him, dealing extra damage based on the tiles travelled. (ST; POS, ATK)&lt;/li&gt;&lt;/ul&gt;&lt;ul&gt;&lt;li&gt;Mobile Fortress: Gain shield for each tile travelled. (P; DEF)&lt;/li&gt;&lt;/ul&gt;" style="text;html=1;whiteSpace=wrap;verticalAlign=middle;overflow=hidden;spacingTop=-13;spacingLeft=-22;spacing=0;glass=0;shadow=0;textShadow=0;labelBackgroundColor=none;" parent="u42fgVE65Rf_uUiQ0a6k-68" vertex="1">
          <mxGeometry y="188" width="303" height="166" as="geometry" />
        </mxCell>
        <mxCell id="u42fgVE65Rf_uUiQ0a6k-86" value="" style="endArrow=classic;html=1;rounded=0;" parent="WIyWlLk6GJQsqaUBKTNV-1" source="u42fgVE65Rf_uUiQ0a6k-42" target="u42fgVE65Rf_uUiQ0a6k-68" edge="1">
          <mxGeometry width="50" height="50" relative="1" as="geometry">
            <mxPoint x="-50" y="920" as="sourcePoint" />
            <mxPoint y="870" as="targetPoint" />
          </mxGeometry>
        </mxCell>
        <mxCell id="u42fgVE65Rf_uUiQ0a6k-89" value="Berserker (STR)" style="swimlane;fontStyle=1;align=center;verticalAlign=top;childLayout=stackLayout;horizontal=1;startSize=26;horizontalStack=0;resizeParent=1;resizeLast=0;collapsible=1;marginBottom=0;rounded=0;shadow=0;strokeWidth=1;fontSize=14;" parent="WIyWlLk6GJQsqaUBKTNV-1" vertex="1">
          <mxGeometry x="327" y="910" width="226" height="318" as="geometry">
            <mxRectangle x="230" y="140" width="160" height="26" as="alternateBounds" />
          </mxGeometry>
        </mxCell>
        <mxCell id="u42fgVE65Rf_uUiQ0a6k-90" value="Berserkers are fueled by pure, unadultered rage. " style="text;align=center;verticalAlign=top;spacingLeft=4;spacingRight=4;overflow=hidden;rotatable=0;points=[[0,0.5],[1,0.5]];portConstraint=eastwest;rounded=0;fillColor=none;fontStyle=0;whiteSpace=wrap;" parent="u42fgVE65Rf_uUiQ0a6k-89" vertex="1">
          <mxGeometry y="26" width="226" height="43" as="geometry" />
        </mxCell>
        <mxCell id="u42fgVE65Rf_uUiQ0a6k-91" value="" style="line;html=1;strokeWidth=1;align=left;verticalAlign=middle;spacingTop=-1;spacingLeft=3;spacingRight=3;rotatable=0;labelPosition=right;points=[];portConstraint=eastwest;" parent="u42fgVE65Rf_uUiQ0a6k-89" vertex="1">
          <mxGeometry y="69" width="226" height="8" as="geometry" />
        </mxCell>
        <mxCell id="u42fgVE65Rf_uUiQ0a6k-92" value="Stats (STR/DEX/INT):&#xa;" style="text;align=center;verticalAlign=top;spacingLeft=4;spacingRight=4;overflow=hidden;rotatable=0;points=[[0,0.5],[1,0.5]];portConstraint=eastwest;rounded=0;fillColor=none;fontStyle=4" parent="u42fgVE65Rf_uUiQ0a6k-89" vertex="1">
          <mxGeometry y="77" width="226" height="26" as="geometry" />
        </mxCell>
        <mxCell id="u42fgVE65Rf_uUiQ0a6k-93" value="&lt;ul style=&quot;border-color: rgb(0, 0, 0); color: rgb(240, 240, 240); font-family: Helvetica; font-size: 12px; font-style: normal; font-variant-ligatures: normal; font-variant-caps: normal; font-weight: 400; letter-spacing: normal; orphans: 2; text-align: left; text-indent: 0px; text-transform: none; widows: 2; word-spacing: 0px; -webkit-text-stroke-width: 0px; white-space: normal; text-decoration-thickness: initial; text-decoration-style: initial; text-decoration-color: initial;&quot;&gt;&lt;li style=&quot;border-color: rgb(0, 0, 0);&quot;&gt;Level 9: 10 - 10 - 10&lt;/li&gt;&lt;li style=&quot;border-color: rgb(0, 0, 0);&quot;&gt;Level 10:&amp;nbsp;10 - 10 - 10&lt;/li&gt;&lt;li style=&quot;border-color: rgb(0, 0, 0);&quot;&gt;Level 11: 10 - 10 - 10&lt;/li&gt;&lt;li style=&quot;border-color: rgb(0, 0, 0);&quot;&gt;Level 12:&amp;nbsp;10 - 10 - 10&lt;/li&gt;&lt;/ul&gt;" style="text;strokeColor=none;fillColor=none;html=1;whiteSpace=wrap;verticalAlign=middle;overflow=hidden;spacingTop=-13;spacingLeft=-22;labelBackgroundColor=none;" parent="u42fgVE65Rf_uUiQ0a6k-89" vertex="1">
          <mxGeometry y="103" width="226" height="59" as="geometry" />
        </mxCell>
        <mxCell id="u42fgVE65Rf_uUiQ0a6k-94" value="" style="line;html=1;strokeWidth=1;align=left;verticalAlign=middle;spacingTop=-1;spacingLeft=3;spacingRight=3;rotatable=0;labelPosition=right;points=[];portConstraint=eastwest;" parent="u42fgVE65Rf_uUiQ0a6k-89" vertex="1">
          <mxGeometry y="162" width="226" height="8" as="geometry" />
        </mxCell>
        <mxCell id="u42fgVE65Rf_uUiQ0a6k-95" value="Skills:" style="text;align=center;verticalAlign=top;spacingLeft=4;spacingRight=4;overflow=hidden;rotatable=0;points=[[0,0.5],[1,0.5]];portConstraint=eastwest;rounded=0;fillColor=none;fontStyle=4" parent="u42fgVE65Rf_uUiQ0a6k-89" vertex="1">
          <mxGeometry y="170" width="226" height="26" as="geometry" />
        </mxCell>
        <mxCell id="u42fgVE65Rf_uUiQ0a6k-96" value="&lt;ul&gt;&lt;li&gt;Rage: Deal extra damage based on your missing HP. (P; ATK)&lt;/li&gt;&lt;/ul&gt;&lt;ul&gt;&lt;li&gt;Second Wind: Activate when below 0% HP. Gain your missing HP as a shield and deal extra damage during the next turn based on the shield gained. (N; HEA, ATK)&lt;/li&gt;&lt;/ul&gt;" style="text;strokeColor=none;fillColor=none;html=1;whiteSpace=wrap;verticalAlign=middle;overflow=hidden;spacingTop=-13;spacingLeft=-24;spacing=0;horizontal=1;labelBackgroundColor=none;labelBorderColor=none;" parent="u42fgVE65Rf_uUiQ0a6k-89" vertex="1">
          <mxGeometry y="196" width="226" height="122" as="geometry" />
        </mxCell>
        <mxCell id="u42fgVE65Rf_uUiQ0a6k-97" value="" style="endArrow=classic;html=1;rounded=0;" parent="WIyWlLk6GJQsqaUBKTNV-1" source="u42fgVE65Rf_uUiQ0a6k-50" target="u42fgVE65Rf_uUiQ0a6k-89" edge="1">
          <mxGeometry width="50" height="50" relative="1" as="geometry">
            <mxPoint x="450" y="740" as="sourcePoint" />
            <mxPoint x="500" y="690" as="targetPoint" />
          </mxGeometry>
        </mxCell>
        <mxCell id="u42fgVE65Rf_uUiQ0a6k-98" value="Bloodrager (INT)" style="swimlane;fontStyle=1;align=center;verticalAlign=top;childLayout=stackLayout;horizontal=1;startSize=26;horizontalStack=0;resizeParent=1;resizeLast=0;collapsible=1;marginBottom=0;rounded=0;shadow=0;strokeWidth=1;fontSize=14;" parent="WIyWlLk6GJQsqaUBKTNV-1" vertex="1">
          <mxGeometry x="1201" y="885" width="230" height="331" as="geometry">
            <mxRectangle x="230" y="140" width="160" height="26" as="alternateBounds" />
          </mxGeometry>
        </mxCell>
        <mxCell id="u42fgVE65Rf_uUiQ0a6k-99" value="Bloodragers use blood magic to enhance their physical prowess. " style="text;align=center;verticalAlign=top;spacingLeft=4;spacingRight=4;overflow=hidden;rotatable=0;points=[[0,0.5],[1,0.5]];portConstraint=eastwest;rounded=0;fillColor=none;fontStyle=0;whiteSpace=wrap;" parent="u42fgVE65Rf_uUiQ0a6k-98" vertex="1">
          <mxGeometry y="26" width="230" height="46" as="geometry" />
        </mxCell>
        <mxCell id="u42fgVE65Rf_uUiQ0a6k-100" value="" style="line;html=1;strokeWidth=1;align=left;verticalAlign=middle;spacingTop=-1;spacingLeft=3;spacingRight=3;rotatable=0;labelPosition=right;points=[];portConstraint=eastwest;" parent="u42fgVE65Rf_uUiQ0a6k-98" vertex="1">
          <mxGeometry y="72" width="230" height="8" as="geometry" />
        </mxCell>
        <mxCell id="u42fgVE65Rf_uUiQ0a6k-101" value="Stats (STR/DEX/INT):&#xa;" style="text;align=center;verticalAlign=top;spacingLeft=4;spacingRight=4;overflow=hidden;rotatable=0;points=[[0,0.5],[1,0.5]];portConstraint=eastwest;rounded=0;fillColor=none;fontStyle=4" parent="u42fgVE65Rf_uUiQ0a6k-98" vertex="1">
          <mxGeometry y="80" width="230" height="26" as="geometry" />
        </mxCell>
        <mxCell id="u42fgVE65Rf_uUiQ0a6k-102" value="&lt;ul&gt;&lt;li&gt;Level 9: 10 - 10 - 10&lt;/li&gt;&lt;li&gt;Level 10:&amp;nbsp;10 - 10 - 10&lt;/li&gt;&lt;li&gt;Level 11: 10 - 10 - 10&lt;/li&gt;&lt;li&gt;Level 12:&amp;nbsp;10 - 10 - 10&lt;/li&gt;&lt;/ul&gt;" style="text;strokeColor=none;fillColor=none;html=1;whiteSpace=wrap;verticalAlign=middle;overflow=hidden;spacingTop=-13;spacingLeft=-22;" parent="u42fgVE65Rf_uUiQ0a6k-98" vertex="1">
          <mxGeometry y="106" width="230" height="60" as="geometry" />
        </mxCell>
        <mxCell id="u42fgVE65Rf_uUiQ0a6k-103" value="" style="line;html=1;strokeWidth=1;align=left;verticalAlign=middle;spacingTop=-1;spacingLeft=3;spacingRight=3;rotatable=0;labelPosition=right;points=[];portConstraint=eastwest;" parent="u42fgVE65Rf_uUiQ0a6k-98" vertex="1">
          <mxGeometry y="166" width="230" height="8" as="geometry" />
        </mxCell>
        <mxCell id="u42fgVE65Rf_uUiQ0a6k-104" value="Skills:" style="text;align=center;verticalAlign=top;spacingLeft=4;spacingRight=4;overflow=hidden;rotatable=0;points=[[0,0.5],[1,0.5]];portConstraint=eastwest;rounded=0;fillColor=none;fontStyle=4" parent="u42fgVE65Rf_uUiQ0a6k-98" vertex="1">
          <mxGeometry y="174" width="230" height="26" as="geometry" />
        </mxCell>
        <mxCell id="u42fgVE65Rf_uUiQ0a6k-105" value="&lt;ul&gt;&lt;li&gt;Reabsorb: Deal damage and heal. Attacking a target that dealt damage to you on its previous turn heals extra HP and deals a crit. (ST; HEA)&lt;/li&gt;&lt;/ul&gt;" style="text;strokeColor=none;fillColor=none;html=1;whiteSpace=wrap;verticalAlign=middle;overflow=hidden;spacingTop=-13;spacingLeft=-19;spacing=0;" parent="u42fgVE65Rf_uUiQ0a6k-98" vertex="1">
          <mxGeometry y="200" width="230" height="131" as="geometry" />
        </mxCell>
        <mxCell id="u42fgVE65Rf_uUiQ0a6k-106" value="" style="endArrow=classic;html=1;rounded=0;" parent="WIyWlLk6GJQsqaUBKTNV-1" source="u42fgVE65Rf_uUiQ0a6k-50" target="u42fgVE65Rf_uUiQ0a6k-98" edge="1">
          <mxGeometry width="50" height="50" relative="1" as="geometry">
            <mxPoint x="1040" y="820" as="sourcePoint" />
            <mxPoint x="1090" y="770" as="targetPoint" />
          </mxGeometry>
        </mxCell>
        <mxCell id="u42fgVE65Rf_uUiQ0a6k-107" value="Way Of Water (DEX)" style="swimlane;fontStyle=1;align=center;verticalAlign=top;childLayout=stackLayout;horizontal=1;startSize=26;horizontalStack=0;resizeParent=1;resizeLast=0;collapsible=1;marginBottom=0;rounded=0;shadow=0;strokeWidth=1;fontSize=14;" parent="WIyWlLk6GJQsqaUBKTNV-1" vertex="1">
          <mxGeometry x="-1603" y="1482" width="238" height="294" as="geometry">
            <mxRectangle x="230" y="140" width="160" height="26" as="alternateBounds" />
          </mxGeometry>
        </mxCell>
        <mxCell id="u42fgVE65Rf_uUiQ0a6k-108" value="Way of Water monks focus on dodging and flowing between enemies. " style="text;align=center;verticalAlign=top;spacingLeft=4;spacingRight=4;overflow=hidden;rotatable=0;points=[[0,0.5],[1,0.5]];portConstraint=eastwest;rounded=0;fillColor=none;fontStyle=0;whiteSpace=wrap;" parent="u42fgVE65Rf_uUiQ0a6k-107" vertex="1">
          <mxGeometry y="26" width="238" height="45" as="geometry" />
        </mxCell>
        <mxCell id="u42fgVE65Rf_uUiQ0a6k-109" value="" style="line;html=1;strokeWidth=1;align=left;verticalAlign=middle;spacingTop=-1;spacingLeft=3;spacingRight=3;rotatable=0;labelPosition=right;points=[];portConstraint=eastwest;" parent="u42fgVE65Rf_uUiQ0a6k-107" vertex="1">
          <mxGeometry y="71" width="238" height="8" as="geometry" />
        </mxCell>
        <mxCell id="u42fgVE65Rf_uUiQ0a6k-110" value="Stats (STR/DEX/INT):&#xa;" style="text;align=center;verticalAlign=top;spacingLeft=4;spacingRight=4;overflow=hidden;rotatable=0;points=[[0,0.5],[1,0.5]];portConstraint=eastwest;rounded=0;fillColor=none;fontStyle=4" parent="u42fgVE65Rf_uUiQ0a6k-107" vertex="1">
          <mxGeometry y="79" width="238" height="26" as="geometry" />
        </mxCell>
        <mxCell id="u42fgVE65Rf_uUiQ0a6k-111" value="&lt;ul&gt;&lt;li&gt;Level 1: 10 - 10 - 10&lt;/li&gt;&lt;li&gt;Level 2:&amp;nbsp;10 - 10 - 10&lt;/li&gt;&lt;li&gt;Level 3:&amp;nbsp;10 - 10 - 10&lt;/li&gt;&lt;li&gt;Level 4:&amp;nbsp;10 - 10 - 10&lt;/li&gt;&lt;/ul&gt;" style="text;strokeColor=none;fillColor=none;html=1;whiteSpace=wrap;verticalAlign=middle;overflow=hidden;spacingTop=-13;spacingLeft=-22;" parent="u42fgVE65Rf_uUiQ0a6k-107" vertex="1">
          <mxGeometry y="105" width="238" height="60" as="geometry" />
        </mxCell>
        <mxCell id="u42fgVE65Rf_uUiQ0a6k-112" value="" style="line;html=1;strokeWidth=1;align=left;verticalAlign=middle;spacingTop=-1;spacingLeft=3;spacingRight=3;rotatable=0;labelPosition=right;points=[];portConstraint=eastwest;" parent="u42fgVE65Rf_uUiQ0a6k-107" vertex="1">
          <mxGeometry y="165" width="238" height="8" as="geometry" />
        </mxCell>
        <mxCell id="u42fgVE65Rf_uUiQ0a6k-113" value="Skills:" style="text;align=center;verticalAlign=top;spacingLeft=4;spacingRight=4;overflow=hidden;rotatable=0;points=[[0,0.5],[1,0.5]];portConstraint=eastwest;rounded=0;fillColor=none;fontStyle=4" parent="u42fgVE65Rf_uUiQ0a6k-107" vertex="1">
          <mxGeometry y="173" width="238" height="28" as="geometry" />
        </mxCell>
        <mxCell id="u42fgVE65Rf_uUiQ0a6k-114" value="&lt;ul&gt;&lt;li&gt;Freezing Palm: Inflicts 2x stacks of Frozen. Then, if the target has 3 or more stacks of Frozen, refund 1x Speed.&lt;br&gt;&lt;/li&gt;&lt;/ul&gt;" style="text;strokeColor=none;fillColor=none;html=1;whiteSpace=wrap;verticalAlign=middle;overflow=hidden;spacingTop=-13;spacingLeft=-22;spacing=0;" parent="u42fgVE65Rf_uUiQ0a6k-107" vertex="1">
          <mxGeometry y="201" width="238" height="93" as="geometry" />
        </mxCell>
        <mxCell id="u42fgVE65Rf_uUiQ0a6k-115" value="" style="endArrow=classic;html=1;rounded=0;" parent="WIyWlLk6GJQsqaUBKTNV-1" source="u42fgVE65Rf_uUiQ0a6k-59" target="u42fgVE65Rf_uUiQ0a6k-107" edge="1">
          <mxGeometry width="50" height="50" relative="1" as="geometry">
            <mxPoint x="-1150" y="1170" as="sourcePoint" />
            <mxPoint x="-1100" y="1120" as="targetPoint" />
          </mxGeometry>
        </mxCell>
        <mxCell id="u42fgVE65Rf_uUiQ0a6k-125" value="Way Of Rock (STR)" style="swimlane;fontStyle=1;align=center;verticalAlign=top;childLayout=stackLayout;horizontal=1;startSize=26;horizontalStack=0;resizeParent=1;resizeLast=0;collapsible=1;marginBottom=0;rounded=0;shadow=0;strokeWidth=1;fontSize=14;fontColor=#ffffff;" parent="WIyWlLk6GJQsqaUBKTNV-1" vertex="1">
          <mxGeometry x="-1173" y="1438" width="260" height="399" as="geometry">
            <mxRectangle x="230" y="140" width="160" height="26" as="alternateBounds" />
          </mxGeometry>
        </mxCell>
        <mxCell id="u42fgVE65Rf_uUiQ0a6k-126" value="Way of Rock monks focus on withstanding hits and reverting them back. " style="text;align=center;verticalAlign=top;spacingLeft=4;spacingRight=4;overflow=hidden;rotatable=0;points=[[0,0.5],[1,0.5]];portConstraint=eastwest;rounded=0;fillColor=none;fontStyle=0;whiteSpace=wrap;" parent="u42fgVE65Rf_uUiQ0a6k-125" vertex="1">
          <mxGeometry y="26" width="260" height="38" as="geometry" />
        </mxCell>
        <mxCell id="u42fgVE65Rf_uUiQ0a6k-127" value="" style="line;html=1;strokeWidth=1;align=left;verticalAlign=middle;spacingTop=-1;spacingLeft=3;spacingRight=3;rotatable=0;labelPosition=right;points=[];portConstraint=eastwest;" parent="u42fgVE65Rf_uUiQ0a6k-125" vertex="1">
          <mxGeometry y="64" width="260" height="8" as="geometry" />
        </mxCell>
        <mxCell id="u42fgVE65Rf_uUiQ0a6k-128" value="Stats (STR/DEX/INT):&#xa;" style="text;align=center;verticalAlign=top;spacingLeft=4;spacingRight=4;overflow=hidden;rotatable=0;points=[[0,0.5],[1,0.5]];portConstraint=eastwest;rounded=0;fillColor=none;fontStyle=4" parent="u42fgVE65Rf_uUiQ0a6k-125" vertex="1">
          <mxGeometry y="72" width="260" height="26" as="geometry" />
        </mxCell>
        <mxCell id="u42fgVE65Rf_uUiQ0a6k-129" value="&lt;ul&gt;&lt;li&gt;Level 1: 10 - 10 - 10&lt;/li&gt;&lt;li&gt;Level 2:&amp;nbsp;10 - 10 - 10&lt;/li&gt;&lt;li&gt;Level 3:&amp;nbsp;10 - 10 - 10&lt;/li&gt;&lt;li&gt;Level 4:&amp;nbsp;10 - 10 - 10&lt;/li&gt;&lt;/ul&gt;" style="text;strokeColor=none;fillColor=none;html=1;whiteSpace=wrap;verticalAlign=middle;overflow=hidden;spacingTop=-13;spacingLeft=-22;" parent="u42fgVE65Rf_uUiQ0a6k-125" vertex="1">
          <mxGeometry y="98" width="260" height="60" as="geometry" />
        </mxCell>
        <mxCell id="u42fgVE65Rf_uUiQ0a6k-130" value="" style="line;html=1;strokeWidth=1;align=left;verticalAlign=middle;spacingTop=-1;spacingLeft=3;spacingRight=3;rotatable=0;labelPosition=right;points=[];portConstraint=eastwest;" parent="u42fgVE65Rf_uUiQ0a6k-125" vertex="1">
          <mxGeometry y="158" width="260" height="8" as="geometry" />
        </mxCell>
        <mxCell id="u42fgVE65Rf_uUiQ0a6k-131" value="Skills:" style="text;align=center;verticalAlign=top;spacingLeft=4;spacingRight=4;overflow=hidden;rotatable=0;points=[[0,0.5],[1,0.5]];portConstraint=eastwest;rounded=0;fillColor=none;fontStyle=4" parent="u42fgVE65Rf_uUiQ0a6k-125" vertex="1">
          <mxGeometry y="166" width="260" height="26" as="geometry" />
        </mxCell>
        <mxCell id="u42fgVE65Rf_uUiQ0a6k-132" value="&lt;ul&gt;&lt;li&gt;Sturdy Log: Upgrade for Brace. Any attack dealt to the character will deal low damage and reflect some damage if the attack was melee.&lt;/li&gt;&lt;/ul&gt;" style="text;strokeColor=none;fillColor=none;html=1;whiteSpace=wrap;verticalAlign=middle;overflow=hidden;spacingTop=-13;spacingLeft=-22;spacing=0;" parent="u42fgVE65Rf_uUiQ0a6k-125" vertex="1">
          <mxGeometry y="192" width="260" height="207" as="geometry" />
        </mxCell>
        <mxCell id="u42fgVE65Rf_uUiQ0a6k-133" value="" style="endArrow=classic;html=1;rounded=0;" parent="WIyWlLk6GJQsqaUBKTNV-1" source="u42fgVE65Rf_uUiQ0a6k-59" target="u42fgVE65Rf_uUiQ0a6k-125" edge="1">
          <mxGeometry width="50" height="50" relative="1" as="geometry">
            <mxPoint x="-1017" y="1240" as="sourcePoint" />
            <mxPoint x="-1060" y="1325" as="targetPoint" />
          </mxGeometry>
        </mxCell>
        <mxCell id="u42fgVE65Rf_uUiQ0a6k-134" value="Mystic Knight (INT)" style="swimlane;fontStyle=1;align=center;verticalAlign=top;childLayout=stackLayout;horizontal=1;startSize=26;horizontalStack=0;resizeParent=1;resizeLast=0;collapsible=1;marginBottom=0;rounded=0;shadow=0;strokeWidth=1;fontSize=14;fontColor=#ffffff;" parent="WIyWlLk6GJQsqaUBKTNV-1" vertex="1">
          <mxGeometry x="-768" y="1441.5" width="290" height="401" as="geometry">
            <mxRectangle x="230" y="140" width="160" height="26" as="alternateBounds" />
          </mxGeometry>
        </mxCell>
        <mxCell id="u42fgVE65Rf_uUiQ0a6k-135" value="Mystic Knights use defensive magic to enhance their combat abilities. " style="text;align=center;verticalAlign=top;spacingLeft=4;spacingRight=4;overflow=hidden;rotatable=0;points=[[0,0.5],[1,0.5]];portConstraint=eastwest;rounded=0;fillColor=none;fontStyle=0;whiteSpace=wrap;" parent="u42fgVE65Rf_uUiQ0a6k-134" vertex="1">
          <mxGeometry y="26" width="290" height="39" as="geometry" />
        </mxCell>
        <mxCell id="u42fgVE65Rf_uUiQ0a6k-136" value="" style="line;html=1;strokeWidth=1;align=left;verticalAlign=middle;spacingTop=-1;spacingLeft=3;spacingRight=3;rotatable=0;labelPosition=right;points=[];portConstraint=eastwest;" parent="u42fgVE65Rf_uUiQ0a6k-134" vertex="1">
          <mxGeometry y="65" width="290" height="8" as="geometry" />
        </mxCell>
        <mxCell id="u42fgVE65Rf_uUiQ0a6k-137" value="Stats (STR/DEX/INT):&#xa;" style="text;align=center;verticalAlign=top;spacingLeft=4;spacingRight=4;overflow=hidden;rotatable=0;points=[[0,0.5],[1,0.5]];portConstraint=eastwest;rounded=0;fillColor=none;fontStyle=4" parent="u42fgVE65Rf_uUiQ0a6k-134" vertex="1">
          <mxGeometry y="73" width="290" height="26" as="geometry" />
        </mxCell>
        <mxCell id="u42fgVE65Rf_uUiQ0a6k-138" value="&lt;ul&gt;&lt;li&gt;Level 1: 10 - 10 - 10&lt;/li&gt;&lt;li&gt;Level 2:&amp;nbsp;10 - 10 - 10&lt;/li&gt;&lt;li&gt;Level 3:&amp;nbsp;10 - 10 - 10&lt;/li&gt;&lt;li&gt;Level 4:&amp;nbsp;10 - 10 - 10&lt;/li&gt;&lt;/ul&gt;" style="text;strokeColor=none;fillColor=none;html=1;whiteSpace=wrap;verticalAlign=middle;overflow=hidden;spacingTop=-13;spacingLeft=-22;" parent="u42fgVE65Rf_uUiQ0a6k-134" vertex="1">
          <mxGeometry y="99" width="290" height="60" as="geometry" />
        </mxCell>
        <mxCell id="u42fgVE65Rf_uUiQ0a6k-139" value="" style="line;html=1;strokeWidth=1;align=left;verticalAlign=middle;spacingTop=-1;spacingLeft=3;spacingRight=3;rotatable=0;labelPosition=right;points=[];portConstraint=eastwest;" parent="u42fgVE65Rf_uUiQ0a6k-134" vertex="1">
          <mxGeometry y="159" width="290" height="8" as="geometry" />
        </mxCell>
        <mxCell id="u42fgVE65Rf_uUiQ0a6k-140" value="Skills:" style="text;align=center;verticalAlign=top;spacingLeft=4;spacingRight=4;overflow=hidden;rotatable=0;points=[[0,0.5],[1,0.5]];portConstraint=eastwest;rounded=0;fillColor=none;fontStyle=4" parent="u42fgVE65Rf_uUiQ0a6k-134" vertex="1">
          <mxGeometry y="167" width="290" height="26" as="geometry" />
        </mxCell>
        <mxCell id="u42fgVE65Rf_uUiQ0a6k-141" value="&lt;ul&gt;&lt;li&gt;Impenetrable Wall: Summon phantoms to each unnocupied tile to your side in a 2 tile range. Each phantom attacks all adjacent enemies. (SUM; ATK)&lt;/li&gt;&lt;/ul&gt;" style="text;strokeColor=none;fillColor=none;html=1;whiteSpace=wrap;verticalAlign=middle;overflow=hidden;spacingTop=-13;spacingLeft=-22;spacing=0;" parent="u42fgVE65Rf_uUiQ0a6k-134" vertex="1">
          <mxGeometry y="193" width="290" height="208" as="geometry" />
        </mxCell>
        <mxCell id="u42fgVE65Rf_uUiQ0a6k-142" value="Vanguard (STR)" style="swimlane;fontStyle=1;align=center;verticalAlign=top;childLayout=stackLayout;horizontal=1;startSize=26;horizontalStack=0;resizeParent=1;resizeLast=0;collapsible=1;marginBottom=0;rounded=0;shadow=0;strokeWidth=1;fontSize=14;" parent="WIyWlLk6GJQsqaUBKTNV-1" vertex="1">
          <mxGeometry x="-306" y="1452" width="240" height="324" as="geometry">
            <mxRectangle x="230" y="140" width="160" height="26" as="alternateBounds" />
          </mxGeometry>
        </mxCell>
        <mxCell id="u42fgVE65Rf_uUiQ0a6k-143" value="Vanguards focus on locking down and controlling an area. " style="text;align=center;verticalAlign=top;spacingLeft=4;spacingRight=4;overflow=hidden;rotatable=0;points=[[0,0.5],[1,0.5]];portConstraint=eastwest;rounded=0;fillColor=none;fontStyle=0;whiteSpace=wrap;" parent="u42fgVE65Rf_uUiQ0a6k-142" vertex="1">
          <mxGeometry y="26" width="240" height="41" as="geometry" />
        </mxCell>
        <mxCell id="u42fgVE65Rf_uUiQ0a6k-144" value="" style="line;html=1;strokeWidth=1;align=left;verticalAlign=middle;spacingTop=-1;spacingLeft=3;spacingRight=3;rotatable=0;labelPosition=right;points=[];portConstraint=eastwest;" parent="u42fgVE65Rf_uUiQ0a6k-142" vertex="1">
          <mxGeometry y="67" width="240" height="8" as="geometry" />
        </mxCell>
        <mxCell id="u42fgVE65Rf_uUiQ0a6k-145" value="Stats (STR/DEX/INT):&#xa;" style="text;align=center;verticalAlign=top;spacingLeft=4;spacingRight=4;overflow=hidden;rotatable=0;points=[[0,0.5],[1,0.5]];portConstraint=eastwest;rounded=0;fillColor=none;fontStyle=4" parent="u42fgVE65Rf_uUiQ0a6k-142" vertex="1">
          <mxGeometry y="75" width="240" height="26" as="geometry" />
        </mxCell>
        <mxCell id="u42fgVE65Rf_uUiQ0a6k-146" value="&lt;ul&gt;&lt;li&gt;Level 1: 10 - 10 - 10&lt;/li&gt;&lt;li&gt;Level 2:&amp;nbsp;10 - 10 - 10&lt;/li&gt;&lt;li&gt;Level 3:&amp;nbsp;10 - 10 - 10&lt;/li&gt;&lt;li&gt;Level 4:&amp;nbsp;10 - 10 - 10&lt;/li&gt;&lt;/ul&gt;" style="text;strokeColor=none;fillColor=none;html=1;whiteSpace=wrap;verticalAlign=middle;overflow=hidden;spacingTop=-13;spacingLeft=-22;" parent="u42fgVE65Rf_uUiQ0a6k-142" vertex="1">
          <mxGeometry y="101" width="240" height="60" as="geometry" />
        </mxCell>
        <mxCell id="u42fgVE65Rf_uUiQ0a6k-147" value="" style="line;html=1;strokeWidth=1;align=left;verticalAlign=middle;spacingTop=-1;spacingLeft=3;spacingRight=3;rotatable=0;labelPosition=right;points=[];portConstraint=eastwest;" parent="u42fgVE65Rf_uUiQ0a6k-142" vertex="1">
          <mxGeometry y="161" width="240" height="8" as="geometry" />
        </mxCell>
        <mxCell id="u42fgVE65Rf_uUiQ0a6k-148" value="Skills:" style="text;align=center;verticalAlign=top;spacingLeft=4;spacingRight=4;overflow=hidden;rotatable=0;points=[[0,0.5],[1,0.5]];portConstraint=eastwest;rounded=0;fillColor=none;fontStyle=4" parent="u42fgVE65Rf_uUiQ0a6k-142" vertex="1">
          <mxGeometry y="169" width="240" height="26" as="geometry" />
        </mxCell>
        <mxCell id="u42fgVE65Rf_uUiQ0a6k-149" value="&lt;ul&gt;&lt;li&gt;&lt;br&gt;&lt;/li&gt;&lt;/ul&gt;" style="text;strokeColor=none;fillColor=none;html=1;whiteSpace=wrap;verticalAlign=middle;overflow=hidden;spacingTop=-13;spacingLeft=-22;spacing=0;" parent="u42fgVE65Rf_uUiQ0a6k-142" vertex="1">
          <mxGeometry y="195" width="240" height="129" as="geometry" />
        </mxCell>
        <mxCell id="u42fgVE65Rf_uUiQ0a6k-151" value="" style="endArrow=classic;html=1;rounded=0;" parent="WIyWlLk6GJQsqaUBKTNV-1" source="u42fgVE65Rf_uUiQ0a6k-68" target="u42fgVE65Rf_uUiQ0a6k-134" edge="1">
          <mxGeometry width="50" height="50" relative="1" as="geometry">
            <mxPoint x="-600" y="1250" as="sourcePoint" />
            <mxPoint x="-550" y="1200" as="targetPoint" />
          </mxGeometry>
        </mxCell>
        <mxCell id="u42fgVE65Rf_uUiQ0a6k-152" value="" style="endArrow=classic;html=1;rounded=0;" parent="WIyWlLk6GJQsqaUBKTNV-1" source="u42fgVE65Rf_uUiQ0a6k-68" target="u42fgVE65Rf_uUiQ0a6k-142" edge="1">
          <mxGeometry width="50" height="50" relative="1" as="geometry">
            <mxPoint x="-110" y="1260" as="sourcePoint" />
            <mxPoint x="-60" y="1210" as="targetPoint" />
          </mxGeometry>
        </mxCell>
        <mxCell id="u42fgVE65Rf_uUiQ0a6k-153" value="Executioner (STR)" style="swimlane;fontStyle=1;align=center;verticalAlign=top;childLayout=stackLayout;horizontal=1;startSize=26;horizontalStack=0;resizeParent=1;resizeLast=0;collapsible=1;marginBottom=0;rounded=0;shadow=0;strokeWidth=1;fontSize=14;" parent="WIyWlLk6GJQsqaUBKTNV-1" vertex="1">
          <mxGeometry x="94" y="1452" width="239" height="348" as="geometry">
            <mxRectangle x="230" y="140" width="160" height="26" as="alternateBounds" />
          </mxGeometry>
        </mxCell>
        <mxCell id="u42fgVE65Rf_uUiQ0a6k-154" value="Executioners specialize in taking down large threats. " style="text;align=center;verticalAlign=top;spacingLeft=4;spacingRight=4;overflow=hidden;rotatable=0;points=[[0,0.5],[1,0.5]];portConstraint=eastwest;rounded=0;fillColor=none;fontStyle=0;whiteSpace=wrap;" parent="u42fgVE65Rf_uUiQ0a6k-153" vertex="1">
          <mxGeometry y="26" width="239" height="39" as="geometry" />
        </mxCell>
        <mxCell id="u42fgVE65Rf_uUiQ0a6k-155" value="" style="line;html=1;strokeWidth=1;align=left;verticalAlign=middle;spacingTop=-1;spacingLeft=3;spacingRight=3;rotatable=0;labelPosition=right;points=[];portConstraint=eastwest;" parent="u42fgVE65Rf_uUiQ0a6k-153" vertex="1">
          <mxGeometry y="65" width="239" height="8" as="geometry" />
        </mxCell>
        <mxCell id="u42fgVE65Rf_uUiQ0a6k-156" value="Stats (STR/DEX/INT):&#xa;" style="text;align=center;verticalAlign=top;spacingLeft=4;spacingRight=4;overflow=hidden;rotatable=0;points=[[0,0.5],[1,0.5]];portConstraint=eastwest;rounded=0;fillColor=none;fontStyle=4" parent="u42fgVE65Rf_uUiQ0a6k-153" vertex="1">
          <mxGeometry y="73" width="239" height="26" as="geometry" />
        </mxCell>
        <mxCell id="u42fgVE65Rf_uUiQ0a6k-157" value="&lt;ul&gt;&lt;li&gt;Level 1: 10 - 10 - 10&lt;/li&gt;&lt;li&gt;Level 2:&amp;nbsp;10 - 10 - 10&lt;/li&gt;&lt;li&gt;Level 3:&amp;nbsp;10 - 10 - 10&lt;/li&gt;&lt;li&gt;Level 4:&amp;nbsp;10 - 10 - 10&lt;/li&gt;&lt;/ul&gt;" style="text;strokeColor=none;fillColor=none;html=1;whiteSpace=wrap;verticalAlign=middle;overflow=hidden;spacingTop=-13;spacingLeft=-22;" parent="u42fgVE65Rf_uUiQ0a6k-153" vertex="1">
          <mxGeometry y="99" width="239" height="60" as="geometry" />
        </mxCell>
        <mxCell id="u42fgVE65Rf_uUiQ0a6k-158" value="" style="line;html=1;strokeWidth=1;align=left;verticalAlign=middle;spacingTop=-1;spacingLeft=3;spacingRight=3;rotatable=0;labelPosition=right;points=[];portConstraint=eastwest;" parent="u42fgVE65Rf_uUiQ0a6k-153" vertex="1">
          <mxGeometry y="159" width="239" height="8" as="geometry" />
        </mxCell>
        <mxCell id="u42fgVE65Rf_uUiQ0a6k-159" value="Skills:" style="text;align=center;verticalAlign=top;spacingLeft=4;spacingRight=4;overflow=hidden;rotatable=0;points=[[0,0.5],[1,0.5]];portConstraint=eastwest;rounded=0;fillColor=none;fontStyle=4" parent="u42fgVE65Rf_uUiQ0a6k-153" vertex="1">
          <mxGeometry y="167" width="239" height="26" as="geometry" />
        </mxCell>
        <mxCell id="u42fgVE65Rf_uUiQ0a6k-160" value="&lt;ul&gt;&lt;li&gt;Finisher: Attacking a non-boss enemy below 25% HP instantly kills it. (N; ATK)&lt;/li&gt;&lt;/ul&gt;" style="text;strokeColor=none;fillColor=none;html=1;whiteSpace=wrap;verticalAlign=middle;overflow=hidden;spacingTop=-13;spacingLeft=-24;spacing=0;horizontal=1;labelBackgroundColor=none;labelBorderColor=none;" parent="u42fgVE65Rf_uUiQ0a6k-153" vertex="1">
          <mxGeometry y="193" width="239" height="155" as="geometry" />
        </mxCell>
        <mxCell id="u42fgVE65Rf_uUiQ0a6k-161" value="Battle Dancer (DEX)" style="swimlane;fontStyle=1;align=center;verticalAlign=top;childLayout=stackLayout;horizontal=1;startSize=26;horizontalStack=0;resizeParent=1;resizeLast=0;collapsible=1;marginBottom=0;rounded=0;shadow=0;strokeWidth=1;fontSize=14;" parent="WIyWlLk6GJQsqaUBKTNV-1" vertex="1">
          <mxGeometry x="524" y="1466.5" width="226" height="280" as="geometry">
            <mxRectangle x="230" y="140" width="160" height="26" as="alternateBounds" />
          </mxGeometry>
        </mxCell>
        <mxCell id="u42fgVE65Rf_uUiQ0a6k-162" value="Battle Dancers weave through the battlefield while attacking enemies. " style="text;align=center;verticalAlign=top;spacingLeft=4;spacingRight=4;overflow=hidden;rotatable=0;points=[[0,0.5],[1,0.5]];portConstraint=eastwest;rounded=0;fillColor=none;fontStyle=0;whiteSpace=wrap;" parent="u42fgVE65Rf_uUiQ0a6k-161" vertex="1">
          <mxGeometry y="26" width="226" height="44" as="geometry" />
        </mxCell>
        <mxCell id="u42fgVE65Rf_uUiQ0a6k-163" value="" style="line;html=1;strokeWidth=1;align=left;verticalAlign=middle;spacingTop=-1;spacingLeft=3;spacingRight=3;rotatable=0;labelPosition=right;points=[];portConstraint=eastwest;" parent="u42fgVE65Rf_uUiQ0a6k-161" vertex="1">
          <mxGeometry y="70" width="226" height="8" as="geometry" />
        </mxCell>
        <mxCell id="u42fgVE65Rf_uUiQ0a6k-164" value="Stats (STR/DEX/INT):&#xa;" style="text;align=center;verticalAlign=top;spacingLeft=4;spacingRight=4;overflow=hidden;rotatable=0;points=[[0,0.5],[1,0.5]];portConstraint=eastwest;rounded=0;fillColor=none;fontStyle=4" parent="u42fgVE65Rf_uUiQ0a6k-161" vertex="1">
          <mxGeometry y="78" width="226" height="26" as="geometry" />
        </mxCell>
        <mxCell id="u42fgVE65Rf_uUiQ0a6k-165" value="&lt;ul&gt;&lt;li&gt;Level 1: 10 - 10 - 10&lt;/li&gt;&lt;li&gt;Level 2:&amp;nbsp;10 - 10 - 10&lt;/li&gt;&lt;li&gt;Level 3:&amp;nbsp;10 - 10 - 10&lt;/li&gt;&lt;li&gt;Level 4:&amp;nbsp;10 - 10 - 10&lt;/li&gt;&lt;/ul&gt;" style="text;strokeColor=none;fillColor=none;html=1;whiteSpace=wrap;verticalAlign=middle;overflow=hidden;spacingTop=-13;spacingLeft=-22;" parent="u42fgVE65Rf_uUiQ0a6k-161" vertex="1">
          <mxGeometry y="104" width="226" height="60" as="geometry" />
        </mxCell>
        <mxCell id="u42fgVE65Rf_uUiQ0a6k-166" value="" style="line;html=1;strokeWidth=1;align=left;verticalAlign=middle;spacingTop=-1;spacingLeft=3;spacingRight=3;rotatable=0;labelPosition=right;points=[];portConstraint=eastwest;" parent="u42fgVE65Rf_uUiQ0a6k-161" vertex="1">
          <mxGeometry y="164" width="226" height="8" as="geometry" />
        </mxCell>
        <mxCell id="u42fgVE65Rf_uUiQ0a6k-167" value="Skills:" style="text;align=center;verticalAlign=top;spacingLeft=4;spacingRight=4;overflow=hidden;rotatable=0;points=[[0,0.5],[1,0.5]];portConstraint=eastwest;rounded=0;fillColor=none;fontStyle=4" parent="u42fgVE65Rf_uUiQ0a6k-161" vertex="1">
          <mxGeometry y="172" width="226" height="26" as="geometry" />
        </mxCell>
        <mxCell id="u42fgVE65Rf_uUiQ0a6k-168" value="&lt;ul&gt;&lt;li&gt;&lt;br&gt;&lt;/li&gt;&lt;/ul&gt;" style="text;strokeColor=none;fillColor=none;html=1;whiteSpace=wrap;verticalAlign=middle;overflow=hidden;spacingTop=-13;spacingLeft=-24;spacing=0;horizontal=1;labelBackgroundColor=none;labelBorderColor=none;" parent="u42fgVE65Rf_uUiQ0a6k-161" vertex="1">
          <mxGeometry y="198" width="226" height="72" as="geometry" />
        </mxCell>
        <mxCell id="u42fgVE65Rf_uUiQ0a6k-173" value="" style="endArrow=classic;html=1;rounded=0;" parent="WIyWlLk6GJQsqaUBKTNV-1" source="u42fgVE65Rf_uUiQ0a6k-89" target="u42fgVE65Rf_uUiQ0a6k-153" edge="1">
          <mxGeometry width="50" height="50" relative="1" as="geometry">
            <mxPoint x="110" y="1388" as="sourcePoint" />
            <mxPoint x="160" y="1338" as="targetPoint" />
          </mxGeometry>
        </mxCell>
        <mxCell id="u42fgVE65Rf_uUiQ0a6k-174" value="" style="endArrow=classic;html=1;rounded=0;" parent="WIyWlLk6GJQsqaUBKTNV-1" source="u42fgVE65Rf_uUiQ0a6k-89" target="u42fgVE65Rf_uUiQ0a6k-161" edge="1">
          <mxGeometry width="50" height="50" relative="1" as="geometry">
            <mxPoint x="789" y="1359" as="sourcePoint" />
            <mxPoint x="839" y="1309" as="targetPoint" />
          </mxGeometry>
        </mxCell>
        <mxCell id="u42fgVE65Rf_uUiQ0a6k-175" value="Brute (STR)" style="swimlane;fontStyle=1;align=center;verticalAlign=top;childLayout=stackLayout;horizontal=1;startSize=26;horizontalStack=0;resizeParent=1;resizeLast=0;collapsible=1;marginBottom=0;rounded=0;shadow=0;strokeWidth=1;fontSize=14;" parent="WIyWlLk6GJQsqaUBKTNV-1" vertex="1">
          <mxGeometry x="916" y="1441.5" width="295" height="339" as="geometry">
            <mxRectangle x="230" y="140" width="160" height="26" as="alternateBounds" />
          </mxGeometry>
        </mxCell>
        <mxCell id="u42fgVE65Rf_uUiQ0a6k-176" value="Brutes unleash rage more efficiently, turning them into formidable foes. " style="text;align=center;verticalAlign=top;spacingLeft=4;spacingRight=4;overflow=hidden;rotatable=0;points=[[0,0.5],[1,0.5]];portConstraint=eastwest;rounded=0;fillColor=none;fontStyle=0;whiteSpace=wrap;" parent="u42fgVE65Rf_uUiQ0a6k-175" vertex="1">
          <mxGeometry y="26" width="295" height="51" as="geometry" />
        </mxCell>
        <mxCell id="u42fgVE65Rf_uUiQ0a6k-177" value="" style="line;html=1;strokeWidth=1;align=left;verticalAlign=middle;spacingTop=-1;spacingLeft=3;spacingRight=3;rotatable=0;labelPosition=right;points=[];portConstraint=eastwest;" parent="u42fgVE65Rf_uUiQ0a6k-175" vertex="1">
          <mxGeometry y="77" width="295" height="8" as="geometry" />
        </mxCell>
        <mxCell id="u42fgVE65Rf_uUiQ0a6k-178" value="Stats (STR/DEX/INT):&#xa;" style="text;align=center;verticalAlign=top;spacingLeft=4;spacingRight=4;overflow=hidden;rotatable=0;points=[[0,0.5],[1,0.5]];portConstraint=eastwest;rounded=0;fillColor=none;fontStyle=4" parent="u42fgVE65Rf_uUiQ0a6k-175" vertex="1">
          <mxGeometry y="85" width="295" height="26" as="geometry" />
        </mxCell>
        <mxCell id="u42fgVE65Rf_uUiQ0a6k-179" value="&lt;ul&gt;&lt;li&gt;Level 1: 10 - 10 - 10&lt;/li&gt;&lt;li&gt;Level 2:&amp;nbsp;10 - 10 - 10&lt;/li&gt;&lt;li&gt;Level 3:&amp;nbsp;10 - 10 - 10&lt;/li&gt;&lt;li&gt;Level 4:&amp;nbsp;10 - 10 - 10&lt;/li&gt;&lt;/ul&gt;" style="text;strokeColor=none;fillColor=none;html=1;whiteSpace=wrap;verticalAlign=middle;overflow=hidden;spacingTop=-13;spacingLeft=-22;" parent="u42fgVE65Rf_uUiQ0a6k-175" vertex="1">
          <mxGeometry y="111" width="295" height="60" as="geometry" />
        </mxCell>
        <mxCell id="u42fgVE65Rf_uUiQ0a6k-180" value="" style="line;html=1;strokeWidth=1;align=left;verticalAlign=middle;spacingTop=-1;spacingLeft=3;spacingRight=3;rotatable=0;labelPosition=right;points=[];portConstraint=eastwest;" parent="u42fgVE65Rf_uUiQ0a6k-175" vertex="1">
          <mxGeometry y="171" width="295" height="8" as="geometry" />
        </mxCell>
        <mxCell id="u42fgVE65Rf_uUiQ0a6k-181" value="Skills:" style="text;align=center;verticalAlign=top;spacingLeft=4;spacingRight=4;overflow=hidden;rotatable=0;points=[[0,0.5],[1,0.5]];portConstraint=eastwest;rounded=0;fillColor=none;fontStyle=4" parent="u42fgVE65Rf_uUiQ0a6k-175" vertex="1">
          <mxGeometry y="179" width="295" height="26" as="geometry" />
        </mxCell>
        <mxCell id="u42fgVE65Rf_uUiQ0a6k-182" value="&lt;ul&gt;&lt;li&gt;&lt;br&gt;&lt;/li&gt;&lt;/ul&gt;" style="text;strokeColor=none;fillColor=none;html=1;whiteSpace=wrap;verticalAlign=middle;overflow=hidden;spacingTop=-13;spacingLeft=-24;spacing=0;horizontal=1;labelBackgroundColor=none;labelBorderColor=none;" parent="u42fgVE65Rf_uUiQ0a6k-175" vertex="1">
          <mxGeometry y="205" width="295" height="134" as="geometry" />
        </mxCell>
        <mxCell id="u42fgVE65Rf_uUiQ0a6k-183" value="Hemomancer (INT)" style="swimlane;fontStyle=1;align=center;verticalAlign=top;childLayout=stackLayout;horizontal=1;startSize=26;horizontalStack=0;resizeParent=1;resizeLast=0;collapsible=1;marginBottom=0;rounded=0;shadow=0;strokeWidth=1;fontSize=14;" parent="WIyWlLk6GJQsqaUBKTNV-1" vertex="1">
          <mxGeometry x="1380" y="1427.5" width="226" height="368" as="geometry">
            <mxRectangle x="230" y="140" width="160" height="26" as="alternateBounds" />
          </mxGeometry>
        </mxCell>
        <mxCell id="u42fgVE65Rf_uUiQ0a6k-184" value="Hemomancers use advanced blood magic, using weakened enemies to their advantage. " style="text;align=center;verticalAlign=top;spacingLeft=4;spacingRight=4;overflow=hidden;rotatable=0;points=[[0,0.5],[1,0.5]];portConstraint=eastwest;rounded=0;fillColor=none;fontStyle=0;whiteSpace=wrap;" parent="u42fgVE65Rf_uUiQ0a6k-183" vertex="1">
          <mxGeometry y="26" width="226" height="52" as="geometry" />
        </mxCell>
        <mxCell id="u42fgVE65Rf_uUiQ0a6k-185" value="" style="line;html=1;strokeWidth=1;align=left;verticalAlign=middle;spacingTop=-1;spacingLeft=3;spacingRight=3;rotatable=0;labelPosition=right;points=[];portConstraint=eastwest;" parent="u42fgVE65Rf_uUiQ0a6k-183" vertex="1">
          <mxGeometry y="78" width="226" height="8" as="geometry" />
        </mxCell>
        <mxCell id="u42fgVE65Rf_uUiQ0a6k-186" value="Stats (STR/DEX/INT):&#xa;" style="text;align=center;verticalAlign=top;spacingLeft=4;spacingRight=4;overflow=hidden;rotatable=0;points=[[0,0.5],[1,0.5]];portConstraint=eastwest;rounded=0;fillColor=none;fontStyle=4" parent="u42fgVE65Rf_uUiQ0a6k-183" vertex="1">
          <mxGeometry y="86" width="226" height="26" as="geometry" />
        </mxCell>
        <mxCell id="u42fgVE65Rf_uUiQ0a6k-187" value="&lt;ul&gt;&lt;li&gt;Level 1: 10 - 10 - 10&lt;/li&gt;&lt;li&gt;Level 2:&amp;nbsp;10 - 10 - 10&lt;/li&gt;&lt;li&gt;Level 3:&amp;nbsp;10 - 10 - 10&lt;/li&gt;&lt;li&gt;Level 4:&amp;nbsp;10 - 10 - 10&lt;/li&gt;&lt;/ul&gt;" style="text;strokeColor=none;fillColor=none;html=1;whiteSpace=wrap;verticalAlign=middle;overflow=hidden;spacingTop=-13;spacingLeft=-22;" parent="u42fgVE65Rf_uUiQ0a6k-183" vertex="1">
          <mxGeometry y="112" width="226" height="60" as="geometry" />
        </mxCell>
        <mxCell id="u42fgVE65Rf_uUiQ0a6k-188" value="" style="line;html=1;strokeWidth=1;align=left;verticalAlign=middle;spacingTop=-1;spacingLeft=3;spacingRight=3;rotatable=0;labelPosition=right;points=[];portConstraint=eastwest;" parent="u42fgVE65Rf_uUiQ0a6k-183" vertex="1">
          <mxGeometry y="172" width="226" height="8" as="geometry" />
        </mxCell>
        <mxCell id="u42fgVE65Rf_uUiQ0a6k-189" value="Skills:" style="text;align=center;verticalAlign=top;spacingLeft=4;spacingRight=4;overflow=hidden;rotatable=0;points=[[0,0.5],[1,0.5]];portConstraint=eastwest;rounded=0;fillColor=none;fontStyle=4" parent="u42fgVE65Rf_uUiQ0a6k-183" vertex="1">
          <mxGeometry y="180" width="226" height="26" as="geometry" />
        </mxCell>
        <mxCell id="u42fgVE65Rf_uUiQ0a6k-190" value="&lt;ul&gt;&lt;li&gt;Blood Control: If the target has at least 3 stacks of bleed, charm them for each stack over 3.&lt;/li&gt;&lt;/ul&gt;" style="text;strokeColor=none;fillColor=none;html=1;whiteSpace=wrap;verticalAlign=middle;overflow=hidden;spacingTop=-13;spacingLeft=-24;spacing=0;horizontal=1;labelBackgroundColor=none;labelBorderColor=none;" parent="u42fgVE65Rf_uUiQ0a6k-183" vertex="1">
          <mxGeometry y="206" width="226" height="162" as="geometry" />
        </mxCell>
        <mxCell id="u42fgVE65Rf_uUiQ0a6k-191" value="" style="endArrow=classic;html=1;rounded=0;" parent="WIyWlLk6GJQsqaUBKTNV-1" source="u42fgVE65Rf_uUiQ0a6k-98" target="u42fgVE65Rf_uUiQ0a6k-175" edge="1">
          <mxGeometry width="50" height="50" relative="1" as="geometry">
            <mxPoint x="1044" y="1261" as="sourcePoint" />
            <mxPoint x="1094" y="1211" as="targetPoint" />
          </mxGeometry>
        </mxCell>
        <mxCell id="u42fgVE65Rf_uUiQ0a6k-192" value="" style="endArrow=classic;html=1;rounded=0;" parent="WIyWlLk6GJQsqaUBKTNV-1" source="u42fgVE65Rf_uUiQ0a6k-98" target="u42fgVE65Rf_uUiQ0a6k-183" edge="1">
          <mxGeometry width="50" height="50" relative="1" as="geometry">
            <mxPoint x="1602" y="1327" as="sourcePoint" />
            <mxPoint x="1652" y="1277" as="targetPoint" />
          </mxGeometry>
        </mxCell>
        <mxCell id="u42fgVE65Rf_uUiQ0a6k-201" value="Grandmaster (STR/DEX)" style="swimlane;fontStyle=1;align=center;verticalAlign=top;childLayout=stackLayout;horizontal=1;startSize=26;horizontalStack=0;resizeParent=1;resizeLast=0;collapsible=1;marginBottom=0;rounded=0;shadow=0;strokeWidth=1;fontSize=14;" parent="WIyWlLk6GJQsqaUBKTNV-1" vertex="1">
          <mxGeometry x="-1411" y="1963" width="333" height="283" as="geometry">
            <mxRectangle x="-1390" y="1953" width="160" height="26" as="alternateBounds" />
          </mxGeometry>
        </mxCell>
        <mxCell id="u42fgVE65Rf_uUiQ0a6k-202" value="Grandmasters are experts at turning the enemies&#39; strength against them. " style="text;align=center;verticalAlign=top;spacingLeft=4;spacingRight=4;overflow=hidden;rotatable=0;points=[[0,0.5],[1,0.5]];portConstraint=eastwest;rounded=0;fillColor=none;fontStyle=0;whiteSpace=wrap;" parent="u42fgVE65Rf_uUiQ0a6k-201" vertex="1">
          <mxGeometry y="26" width="333" height="41" as="geometry" />
        </mxCell>
        <mxCell id="u42fgVE65Rf_uUiQ0a6k-203" value="" style="line;html=1;strokeWidth=1;align=left;verticalAlign=middle;spacingTop=-1;spacingLeft=3;spacingRight=3;rotatable=0;labelPosition=right;points=[];portConstraint=eastwest;" parent="u42fgVE65Rf_uUiQ0a6k-201" vertex="1">
          <mxGeometry y="67" width="333" height="8" as="geometry" />
        </mxCell>
        <mxCell id="u42fgVE65Rf_uUiQ0a6k-204" value="Stats (STR/DEX/INT):&#xa;" style="text;align=center;verticalAlign=top;spacingLeft=4;spacingRight=4;overflow=hidden;rotatable=0;points=[[0,0.5],[1,0.5]];portConstraint=eastwest;rounded=0;fillColor=none;fontStyle=4" parent="u42fgVE65Rf_uUiQ0a6k-201" vertex="1">
          <mxGeometry y="75" width="333" height="26" as="geometry" />
        </mxCell>
        <mxCell id="u42fgVE65Rf_uUiQ0a6k-205" value="&lt;ul&gt;&lt;li&gt;Level 1: 10 - 10 - 10&lt;/li&gt;&lt;li&gt;Level 2:&amp;nbsp;10 - 10 - 10&lt;/li&gt;&lt;li&gt;Level 3:&amp;nbsp;10 - 10 - 10&lt;/li&gt;&lt;li&gt;Level 4:&amp;nbsp;10 - 10 - 10&lt;/li&gt;&lt;/ul&gt;" style="text;strokeColor=none;fillColor=none;html=1;whiteSpace=wrap;verticalAlign=middle;overflow=hidden;spacingTop=-13;spacingLeft=-22;" parent="u42fgVE65Rf_uUiQ0a6k-201" vertex="1">
          <mxGeometry y="101" width="333" height="60" as="geometry" />
        </mxCell>
        <mxCell id="u42fgVE65Rf_uUiQ0a6k-206" value="" style="line;html=1;strokeWidth=1;align=left;verticalAlign=middle;spacingTop=-1;spacingLeft=3;spacingRight=3;rotatable=0;labelPosition=right;points=[];portConstraint=eastwest;" parent="u42fgVE65Rf_uUiQ0a6k-201" vertex="1">
          <mxGeometry y="161" width="333" height="8" as="geometry" />
        </mxCell>
        <mxCell id="u42fgVE65Rf_uUiQ0a6k-207" value="Skills:" style="text;align=center;verticalAlign=top;spacingLeft=4;spacingRight=4;overflow=hidden;rotatable=0;points=[[0,0.5],[1,0.5]];portConstraint=eastwest;rounded=0;fillColor=none;fontStyle=4" parent="u42fgVE65Rf_uUiQ0a6k-201" vertex="1">
          <mxGeometry y="169" width="333" height="26" as="geometry" />
        </mxCell>
        <mxCell id="u42fgVE65Rf_uUiQ0a6k-208" value="&lt;ul&gt;&lt;li&gt;&lt;br&gt;&lt;/li&gt;&lt;/ul&gt;" style="text;strokeColor=none;fillColor=none;html=1;whiteSpace=wrap;verticalAlign=middle;overflow=hidden;spacingTop=-13;spacingLeft=-22;spacing=0;" parent="u42fgVE65Rf_uUiQ0a6k-201" vertex="1">
          <mxGeometry y="195" width="333" height="75" as="geometry" />
        </mxCell>
        <mxCell id="u42fgVE65Rf_uUiQ0a6k-210" value="Paladin (STR/INT)" style="swimlane;fontStyle=1;align=center;verticalAlign=top;childLayout=stackLayout;horizontal=1;startSize=26;horizontalStack=0;resizeParent=1;resizeLast=0;collapsible=1;marginBottom=0;rounded=0;shadow=0;strokeWidth=1;fontSize=14;" parent="WIyWlLk6GJQsqaUBKTNV-1" vertex="1">
          <mxGeometry x="-557" y="1973" width="260" height="310" as="geometry">
            <mxRectangle x="230" y="140" width="160" height="26" as="alternateBounds" />
          </mxGeometry>
        </mxCell>
        <mxCell id="u42fgVE65Rf_uUiQ0a6k-211" value="Paladins are holy knights that gained the favour of the god of war. " style="text;align=center;verticalAlign=top;spacingLeft=4;spacingRight=4;overflow=hidden;rotatable=0;points=[[0,0.5],[1,0.5]];portConstraint=eastwest;rounded=0;fillColor=none;fontStyle=0;whiteSpace=wrap;" parent="u42fgVE65Rf_uUiQ0a6k-210" vertex="1">
          <mxGeometry y="26" width="260" height="44" as="geometry" />
        </mxCell>
        <mxCell id="u42fgVE65Rf_uUiQ0a6k-212" value="" style="line;html=1;strokeWidth=1;align=left;verticalAlign=middle;spacingTop=-1;spacingLeft=3;spacingRight=3;rotatable=0;labelPosition=right;points=[];portConstraint=eastwest;" parent="u42fgVE65Rf_uUiQ0a6k-210" vertex="1">
          <mxGeometry y="70" width="260" height="8" as="geometry" />
        </mxCell>
        <mxCell id="u42fgVE65Rf_uUiQ0a6k-213" value="Stats (STR/DEX/INT):&#xa;" style="text;align=center;verticalAlign=top;spacingLeft=4;spacingRight=4;overflow=hidden;rotatable=0;points=[[0,0.5],[1,0.5]];portConstraint=eastwest;rounded=0;fillColor=none;fontStyle=4" parent="u42fgVE65Rf_uUiQ0a6k-210" vertex="1">
          <mxGeometry y="78" width="260" height="26" as="geometry" />
        </mxCell>
        <mxCell id="u42fgVE65Rf_uUiQ0a6k-214" value="&lt;ul&gt;&lt;li&gt;Level 1: 10 - 10 - 10&lt;/li&gt;&lt;li&gt;Level 2:&amp;nbsp;10 - 10 - 10&lt;/li&gt;&lt;li&gt;Level 3:&amp;nbsp;10 - 10 - 10&lt;/li&gt;&lt;li&gt;Level 4:&amp;nbsp;10 - 10 - 10&lt;/li&gt;&lt;/ul&gt;" style="text;strokeColor=none;fillColor=none;html=1;whiteSpace=wrap;verticalAlign=middle;overflow=hidden;spacingTop=-13;spacingLeft=-22;" parent="u42fgVE65Rf_uUiQ0a6k-210" vertex="1">
          <mxGeometry y="104" width="260" height="60" as="geometry" />
        </mxCell>
        <mxCell id="u42fgVE65Rf_uUiQ0a6k-215" value="" style="line;html=1;strokeWidth=1;align=left;verticalAlign=middle;spacingTop=-1;spacingLeft=3;spacingRight=3;rotatable=0;labelPosition=right;points=[];portConstraint=eastwest;" parent="u42fgVE65Rf_uUiQ0a6k-210" vertex="1">
          <mxGeometry y="164" width="260" height="8" as="geometry" />
        </mxCell>
        <mxCell id="u42fgVE65Rf_uUiQ0a6k-216" value="Skills:" style="text;align=center;verticalAlign=top;spacingLeft=4;spacingRight=4;overflow=hidden;rotatable=0;points=[[0,0.5],[1,0.5]];portConstraint=eastwest;rounded=0;fillColor=none;fontStyle=4" parent="u42fgVE65Rf_uUiQ0a6k-210" vertex="1">
          <mxGeometry y="172" width="260" height="26" as="geometry" />
        </mxCell>
        <mxCell id="u42fgVE65Rf_uUiQ0a6k-217" value="&lt;ul&gt;&lt;li&gt;Lay On Hands: Restore a character&#39;s HP and remove all their debuffs. (ST; HEA)&lt;br&gt;&lt;/li&gt;&lt;/ul&gt;" style="text;strokeColor=none;fillColor=none;html=1;whiteSpace=wrap;verticalAlign=middle;overflow=hidden;spacingTop=-13;spacingLeft=-22;spacing=0;" parent="u42fgVE65Rf_uUiQ0a6k-210" vertex="1">
          <mxGeometry y="198" width="260" height="102" as="geometry" />
        </mxCell>
        <mxCell id="u42fgVE65Rf_uUiQ0a6k-218" value="Scourge (STR/DEX)" style="swimlane;fontStyle=1;align=center;verticalAlign=top;childLayout=stackLayout;horizontal=1;startSize=26;horizontalStack=0;resizeParent=1;resizeLast=0;collapsible=1;marginBottom=0;rounded=0;shadow=0;strokeWidth=1;fontSize=14;" parent="WIyWlLk6GJQsqaUBKTNV-1" vertex="1">
          <mxGeometry x="275" y="1997" width="296" height="237" as="geometry">
            <mxRectangle x="230" y="140" width="160" height="26" as="alternateBounds" />
          </mxGeometry>
        </mxCell>
        <mxCell id="u42fgVE65Rf_uUiQ0a6k-219" value="Scourges are brutal fighters that can deal and withstand massive amounts of damage. " style="text;align=center;verticalAlign=top;spacingLeft=4;spacingRight=4;overflow=hidden;rotatable=0;points=[[0,0.5],[1,0.5]];portConstraint=eastwest;rounded=0;fillColor=none;fontStyle=0;whiteSpace=wrap;" parent="u42fgVE65Rf_uUiQ0a6k-218" vertex="1">
          <mxGeometry y="26" width="296" height="42" as="geometry" />
        </mxCell>
        <mxCell id="u42fgVE65Rf_uUiQ0a6k-220" value="" style="line;html=1;strokeWidth=1;align=left;verticalAlign=middle;spacingTop=-1;spacingLeft=3;spacingRight=3;rotatable=0;labelPosition=right;points=[];portConstraint=eastwest;" parent="u42fgVE65Rf_uUiQ0a6k-218" vertex="1">
          <mxGeometry y="68" width="296" height="8" as="geometry" />
        </mxCell>
        <mxCell id="u42fgVE65Rf_uUiQ0a6k-221" value="Stats (STR/DEX/INT):&#xa;" style="text;align=center;verticalAlign=top;spacingLeft=4;spacingRight=4;overflow=hidden;rotatable=0;points=[[0,0.5],[1,0.5]];portConstraint=eastwest;rounded=0;fillColor=none;fontStyle=4" parent="u42fgVE65Rf_uUiQ0a6k-218" vertex="1">
          <mxGeometry y="76" width="296" height="26" as="geometry" />
        </mxCell>
        <mxCell id="u42fgVE65Rf_uUiQ0a6k-222" value="&lt;ul&gt;&lt;li&gt;Level 1: 10 - 10 - 10&lt;/li&gt;&lt;li&gt;Level 2:&amp;nbsp;10 - 10 - 10&lt;/li&gt;&lt;li&gt;Level 3:&amp;nbsp;10 - 10 - 10&lt;/li&gt;&lt;li&gt;Level 4:&amp;nbsp;10 - 10 - 10&lt;/li&gt;&lt;/ul&gt;" style="text;strokeColor=none;fillColor=none;html=1;whiteSpace=wrap;verticalAlign=middle;overflow=hidden;spacingTop=-13;spacingLeft=-22;" parent="u42fgVE65Rf_uUiQ0a6k-218" vertex="1">
          <mxGeometry y="102" width="296" height="60" as="geometry" />
        </mxCell>
        <mxCell id="u42fgVE65Rf_uUiQ0a6k-223" value="" style="line;html=1;strokeWidth=1;align=left;verticalAlign=middle;spacingTop=-1;spacingLeft=3;spacingRight=3;rotatable=0;labelPosition=right;points=[];portConstraint=eastwest;" parent="u42fgVE65Rf_uUiQ0a6k-218" vertex="1">
          <mxGeometry y="162" width="296" height="8" as="geometry" />
        </mxCell>
        <mxCell id="u42fgVE65Rf_uUiQ0a6k-224" value="Skills:" style="text;align=center;verticalAlign=top;spacingLeft=4;spacingRight=4;overflow=hidden;rotatable=0;points=[[0,0.5],[1,0.5]];portConstraint=eastwest;rounded=0;fillColor=none;fontStyle=4" parent="u42fgVE65Rf_uUiQ0a6k-218" vertex="1">
          <mxGeometry y="170" width="296" height="26" as="geometry" />
        </mxCell>
        <mxCell id="u42fgVE65Rf_uUiQ0a6k-225" value="&lt;ul&gt;&lt;li&gt;&lt;br&gt;&lt;/li&gt;&lt;/ul&gt;" style="text;strokeColor=none;fillColor=none;html=1;whiteSpace=wrap;verticalAlign=middle;overflow=hidden;spacingTop=-13;spacingLeft=-22;spacing=0;" parent="u42fgVE65Rf_uUiQ0a6k-218" vertex="1">
          <mxGeometry y="196" width="296" height="41" as="geometry" />
        </mxCell>
        <mxCell id="u42fgVE65Rf_uUiQ0a6k-226" value="Reaver (STR/INT)" style="swimlane;align=center;verticalAlign=top;childLayout=stackLayout;horizontal=1;startSize=26;horizontalStack=0;resizeParent=1;resizeLast=0;collapsible=1;marginBottom=0;rounded=0;shadow=0;strokeWidth=1;" parent="WIyWlLk6GJQsqaUBKTNV-1" vertex="1">
          <mxGeometry x="1164" y="1976" width="260" height="283" as="geometry">
            <mxRectangle x="230" y="140" width="160" height="26" as="alternateBounds" />
          </mxGeometry>
        </mxCell>
        <mxCell id="u42fgVE65Rf_uUiQ0a6k-227" value="Reavers are frightening warriores that become stronger the longer the battle rages on." style="text;align=center;verticalAlign=top;spacingLeft=4;spacingRight=4;overflow=hidden;rotatable=0;points=[[0,0.5],[1,0.5]];portConstraint=eastwest;rounded=0;fillColor=none;fontStyle=0;whiteSpace=wrap;" parent="u42fgVE65Rf_uUiQ0a6k-226" vertex="1">
          <mxGeometry y="26" width="260" height="36" as="geometry" />
        </mxCell>
        <mxCell id="u42fgVE65Rf_uUiQ0a6k-228" value="" style="line;html=1;strokeWidth=1;align=left;verticalAlign=middle;spacingTop=-1;spacingLeft=3;spacingRight=3;rotatable=0;labelPosition=right;points=[];portConstraint=eastwest;" parent="u42fgVE65Rf_uUiQ0a6k-226" vertex="1">
          <mxGeometry y="62" width="260" height="8" as="geometry" />
        </mxCell>
        <mxCell id="u42fgVE65Rf_uUiQ0a6k-229" value="Stats (STR/DEX/INT):&#xa;" style="text;align=center;verticalAlign=top;spacingLeft=4;spacingRight=4;overflow=hidden;rotatable=0;points=[[0,0.5],[1,0.5]];portConstraint=eastwest;rounded=0;fillColor=none;fontStyle=4" parent="u42fgVE65Rf_uUiQ0a6k-226" vertex="1">
          <mxGeometry y="70" width="260" height="26" as="geometry" />
        </mxCell>
        <mxCell id="u42fgVE65Rf_uUiQ0a6k-230" value="&lt;ul&gt;&lt;li&gt;Level 1: 10 - 10 - 10&lt;/li&gt;&lt;li&gt;Level 2:&amp;nbsp;10 - 10 - 10&lt;/li&gt;&lt;li&gt;Level 3:&amp;nbsp;10 - 10 - 10&lt;/li&gt;&lt;li&gt;Level 4:&amp;nbsp;10 - 10 - 10&lt;/li&gt;&lt;/ul&gt;" style="text;strokeColor=none;fillColor=none;html=1;whiteSpace=wrap;verticalAlign=middle;overflow=hidden;spacingTop=-13;spacingLeft=-22;" parent="u42fgVE65Rf_uUiQ0a6k-226" vertex="1">
          <mxGeometry y="96" width="260" height="60" as="geometry" />
        </mxCell>
        <mxCell id="u42fgVE65Rf_uUiQ0a6k-231" value="" style="line;html=1;strokeWidth=1;align=left;verticalAlign=middle;spacingTop=-1;spacingLeft=3;spacingRight=3;rotatable=0;labelPosition=right;points=[];portConstraint=eastwest;" parent="u42fgVE65Rf_uUiQ0a6k-226" vertex="1">
          <mxGeometry y="156" width="260" height="8" as="geometry" />
        </mxCell>
        <mxCell id="u42fgVE65Rf_uUiQ0a6k-232" value="Skills:" style="text;align=center;verticalAlign=top;spacingLeft=4;spacingRight=4;overflow=hidden;rotatable=0;points=[[0,0.5],[1,0.5]];portConstraint=eastwest;rounded=0;fillColor=none;fontStyle=4" parent="u42fgVE65Rf_uUiQ0a6k-226" vertex="1">
          <mxGeometry y="164" width="260" height="26" as="geometry" />
        </mxCell>
        <mxCell id="u42fgVE65Rf_uUiQ0a6k-233" value="&lt;ul&gt;&lt;li&gt;Onslaught: Each turn, increase your max HP by 5.&lt;/li&gt;&lt;/ul&gt;" style="text;strokeColor=none;fillColor=none;html=1;whiteSpace=wrap;verticalAlign=middle;overflow=hidden;spacingTop=-13;spacingLeft=-22;spacing=0;" parent="u42fgVE65Rf_uUiQ0a6k-226" vertex="1">
          <mxGeometry y="190" width="260" height="93" as="geometry" />
        </mxCell>
        <mxCell id="u42fgVE65Rf_uUiQ0a6k-237" value="" style="endArrow=classic;html=1;rounded=0;" parent="WIyWlLk6GJQsqaUBKTNV-1" source="u42fgVE65Rf_uUiQ0a6k-107" target="u42fgVE65Rf_uUiQ0a6k-201" edge="1">
          <mxGeometry width="50" height="50" relative="1" as="geometry">
            <mxPoint x="-1302" y="1932" as="sourcePoint" />
            <mxPoint x="-1254" y="1880" as="targetPoint" />
          </mxGeometry>
        </mxCell>
        <mxCell id="u42fgVE65Rf_uUiQ0a6k-238" value="" style="endArrow=classic;html=1;rounded=0;" parent="WIyWlLk6GJQsqaUBKTNV-1" source="u42fgVE65Rf_uUiQ0a6k-125" target="u42fgVE65Rf_uUiQ0a6k-201" edge="1">
          <mxGeometry width="50" height="50" relative="1" as="geometry">
            <mxPoint x="-1169" y="1930" as="sourcePoint" />
            <mxPoint x="-1119" y="1880" as="targetPoint" />
          </mxGeometry>
        </mxCell>
        <mxCell id="u42fgVE65Rf_uUiQ0a6k-239" value="" style="endArrow=classic;html=1;rounded=0;" parent="WIyWlLk6GJQsqaUBKTNV-1" source="u42fgVE65Rf_uUiQ0a6k-134" target="u42fgVE65Rf_uUiQ0a6k-210" edge="1">
          <mxGeometry width="50" height="50" relative="1" as="geometry">
            <mxPoint x="-602" y="1894" as="sourcePoint" />
            <mxPoint x="-552" y="1844" as="targetPoint" />
          </mxGeometry>
        </mxCell>
        <mxCell id="u42fgVE65Rf_uUiQ0a6k-240" value="" style="endArrow=classic;html=1;rounded=0;" parent="WIyWlLk6GJQsqaUBKTNV-1" source="u42fgVE65Rf_uUiQ0a6k-142" target="u42fgVE65Rf_uUiQ0a6k-210" edge="1">
          <mxGeometry width="50" height="50" relative="1" as="geometry">
            <mxPoint x="-332" y="1890" as="sourcePoint" />
            <mxPoint x="-282" y="1840" as="targetPoint" />
          </mxGeometry>
        </mxCell>
        <mxCell id="u42fgVE65Rf_uUiQ0a6k-241" value="" style="endArrow=classic;html=1;rounded=0;entryX=0.25;entryY=0;entryDx=0;entryDy=0;" parent="WIyWlLk6GJQsqaUBKTNV-1" source="u42fgVE65Rf_uUiQ0a6k-153" target="u42fgVE65Rf_uUiQ0a6k-218" edge="1">
          <mxGeometry width="50" height="50" relative="1" as="geometry">
            <mxPoint x="281" y="1881" as="sourcePoint" />
            <mxPoint x="331" y="1831" as="targetPoint" />
          </mxGeometry>
        </mxCell>
        <mxCell id="u42fgVE65Rf_uUiQ0a6k-242" value="" style="endArrow=classic;html=1;rounded=0;entryX=0.688;entryY=-0.005;entryDx=0;entryDy=0;entryPerimeter=0;" parent="WIyWlLk6GJQsqaUBKTNV-1" source="u42fgVE65Rf_uUiQ0a6k-161" target="u42fgVE65Rf_uUiQ0a6k-218" edge="1">
          <mxGeometry width="50" height="50" relative="1" as="geometry">
            <mxPoint x="571" y="1874" as="sourcePoint" />
            <mxPoint x="621" y="1824" as="targetPoint" />
          </mxGeometry>
        </mxCell>
        <mxCell id="u42fgVE65Rf_uUiQ0a6k-243" value="" style="endArrow=classic;html=1;rounded=0;" parent="WIyWlLk6GJQsqaUBKTNV-1" source="u42fgVE65Rf_uUiQ0a6k-175" target="u42fgVE65Rf_uUiQ0a6k-226" edge="1">
          <mxGeometry width="50" height="50" relative="1" as="geometry">
            <mxPoint x="1114" y="1892" as="sourcePoint" />
            <mxPoint x="1164" y="1842" as="targetPoint" />
          </mxGeometry>
        </mxCell>
        <mxCell id="u42fgVE65Rf_uUiQ0a6k-244" value="" style="endArrow=classic;html=1;rounded=0;" parent="WIyWlLk6GJQsqaUBKTNV-1" source="u42fgVE65Rf_uUiQ0a6k-183" target="u42fgVE65Rf_uUiQ0a6k-226" edge="1">
          <mxGeometry width="50" height="50" relative="1" as="geometry">
            <mxPoint x="1423" y="1888" as="sourcePoint" />
            <mxPoint x="1473" y="1838" as="targetPoint" />
          </mxGeometry>
        </mxCell>
        <mxCell id="u42fgVE65Rf_uUiQ0a6k-251" value="Double Edge&lt;div&gt;Healing&lt;/div&gt;&lt;div&gt;Attrition&lt;/div&gt;" style="rounded=0;whiteSpace=wrap;html=1;fontSize=20;" parent="WIyWlLk6GJQsqaUBKTNV-1" vertex="1">
          <mxGeometry x="1256" y="637" width="120" height="85" as="geometry" />
        </mxCell>
        <mxCell id="u42fgVE65Rf_uUiQ0a6k-252" value="Rage&lt;div&gt;Presence&lt;/div&gt;&lt;div&gt;Offense&lt;/div&gt;" style="rounded=0;whiteSpace=wrap;html=1;fontSize=20;" parent="WIyWlLk6GJQsqaUBKTNV-1" vertex="1">
          <mxGeometry x="354" y="637" width="120" height="85" as="geometry" />
        </mxCell>
        <mxCell id="u42fgVE65Rf_uUiQ0a6k-253" value="Defense&lt;div&gt;Support&lt;/div&gt;&lt;div&gt;Control&lt;/div&gt;" style="rounded=0;whiteSpace=wrap;html=1;fontSize=20;" parent="WIyWlLk6GJQsqaUBKTNV-1" vertex="1">
          <mxGeometry x="-436" y="637" width="120" height="85" as="geometry" />
        </mxCell>
        <mxCell id="u42fgVE65Rf_uUiQ0a6k-254" value="Evasion&lt;div&gt;Deflection&lt;/div&gt;&lt;div&gt;Balance&lt;/div&gt;" style="rounded=0;whiteSpace=wrap;html=1;fontSize=20;" parent="WIyWlLk6GJQsqaUBKTNV-1" vertex="1">
          <mxGeometry x="-1347" y="637" width="120" height="85" as="geometry" />
        </mxCell>
        <mxCell id="u42fgVE65Rf_uUiQ0a6k-255" value="" style="shape=flexArrow;endArrow=classic;html=1;rounded=0;" parent="WIyWlLk6GJQsqaUBKTNV-1" edge="1">
          <mxGeometry width="50" height="50" relative="1" as="geometry">
            <mxPoint x="-1287.62" y="737" as="sourcePoint" />
            <mxPoint x="-1287.62" y="813" as="targetPoint" />
          </mxGeometry>
        </mxCell>
        <mxCell id="u42fgVE65Rf_uUiQ0a6k-256" value="" style="shape=flexArrow;endArrow=classic;html=1;rounded=0;" parent="WIyWlLk6GJQsqaUBKTNV-1" edge="1">
          <mxGeometry width="50" height="50" relative="1" as="geometry">
            <mxPoint x="-376.6199999999999" y="731" as="sourcePoint" />
            <mxPoint x="-376.6199999999999" y="807" as="targetPoint" />
          </mxGeometry>
        </mxCell>
        <mxCell id="u42fgVE65Rf_uUiQ0a6k-257" value="" style="shape=flexArrow;endArrow=classic;html=1;rounded=0;" parent="WIyWlLk6GJQsqaUBKTNV-1" edge="1">
          <mxGeometry width="50" height="50" relative="1" as="geometry">
            <mxPoint x="414.0000000000001" y="741" as="sourcePoint" />
            <mxPoint x="414.0000000000001" y="817" as="targetPoint" />
          </mxGeometry>
        </mxCell>
        <mxCell id="u42fgVE65Rf_uUiQ0a6k-258" value="" style="shape=flexArrow;endArrow=classic;html=1;rounded=0;" parent="WIyWlLk6GJQsqaUBKTNV-1" edge="1">
          <mxGeometry width="50" height="50" relative="1" as="geometry">
            <mxPoint x="1315.3700000000001" y="741" as="sourcePoint" />
            <mxPoint x="1315.3700000000001" y="817" as="targetPoint" />
          </mxGeometry>
        </mxCell>
        <mxCell id="aOJyi6h6zEOo6nqobhhD-0" value="Total Skill Count" style="swimlane;fontStyle=1;align=center;verticalAlign=top;childLayout=stackLayout;horizontal=1;startSize=26;horizontalStack=0;resizeParent=1;resizeLast=0;collapsible=1;marginBottom=0;rounded=0;shadow=0;strokeWidth=1;fontSize=14;" parent="WIyWlLk6GJQsqaUBKTNV-1" vertex="1">
          <mxGeometry x="-596" y="52" width="200" height="288" as="geometry">
            <mxRectangle x="230" y="140" width="160" height="26" as="alternateBounds" />
          </mxGeometry>
        </mxCell>
        <mxCell id="aOJyi6h6zEOo6nqobhhD-1" value="Targetting:" style="text;align=center;verticalAlign=top;spacingLeft=4;spacingRight=4;overflow=hidden;rotatable=0;points=[[0,0.5],[1,0.5]];portConstraint=eastwest;rounded=0;fillColor=none;fontStyle=4" parent="aOJyi6h6zEOo6nqobhhD-0" vertex="1">
          <mxGeometry y="26" width="200" height="26" as="geometry" />
        </mxCell>
        <mxCell id="aOJyi6h6zEOo6nqobhhD-2" value="&lt;ul&gt;&lt;li&gt;Area of Effect (AoE): 0&lt;/li&gt;&lt;li&gt;Single Target (ST): 0&lt;/li&gt;&lt;li&gt;Multi Target (MT): 0&lt;/li&gt;&lt;li&gt;Empty Tile (ET): 0&lt;br&gt;&lt;/li&gt;&lt;li&gt;Neutral (N): 0&lt;/li&gt;&lt;li&gt;Passive (P): 0&lt;br&gt;&lt;/li&gt;&lt;/ul&gt;" style="text;strokeColor=none;fillColor=none;html=1;whiteSpace=wrap;verticalAlign=middle;overflow=hidden;spacingTop=-13;spacingLeft=-22;spacing=0;" parent="aOJyi6h6zEOo6nqobhhD-0" vertex="1">
          <mxGeometry y="52" width="200" height="91" as="geometry" />
        </mxCell>
        <mxCell id="aOJyi6h6zEOo6nqobhhD-3" value="" style="line;html=1;strokeWidth=1;align=left;verticalAlign=middle;spacingTop=-1;spacingLeft=3;spacingRight=3;rotatable=0;labelPosition=right;points=[];portConstraint=eastwest;" parent="aOJyi6h6zEOo6nqobhhD-0" vertex="1">
          <mxGeometry y="143" width="200" height="8" as="geometry" />
        </mxCell>
        <mxCell id="aOJyi6h6zEOo6nqobhhD-4" value="Types" style="text;align=center;verticalAlign=top;spacingLeft=4;spacingRight=4;overflow=hidden;rotatable=0;points=[[0,0.5],[1,0.5]];portConstraint=eastwest;rounded=0;fillColor=none;fontStyle=4" parent="aOJyi6h6zEOo6nqobhhD-0" vertex="1">
          <mxGeometry y="151" width="200" height="26" as="geometry" />
        </mxCell>
        <mxCell id="aOJyi6h6zEOo6nqobhhD-5" value="&lt;ul&gt;&lt;li&gt;Attack (ATK): 0&lt;/li&gt;&lt;li&gt;Defend (DEF): 0&lt;/li&gt;&lt;li&gt;Healing (HEA): 0&lt;/li&gt;&lt;li&gt;Weakening (WEA): 0&lt;/li&gt;&lt;li&gt;Position (POS): 0&lt;/li&gt;&lt;li&gt;Summon (SUM): 0&lt;/li&gt;&lt;/ul&gt;" style="text;strokeColor=none;fillColor=none;html=1;whiteSpace=wrap;verticalAlign=middle;overflow=hidden;spacingTop=-13;spacingLeft=-22;spacing=0;" parent="aOJyi6h6zEOo6nqobhhD-0" vertex="1">
          <mxGeometry y="177" width="200" height="111" as="geometry" />
        </mxCell>
      </root>
    </mxGraphModel>
  </diagram>
</mxfile>
